<?xml version="1.0" encoding="UTF-8"?>
<svg version="1.1" xmlns="http://www.w3.org/2000/svg" width="1024" height="1024">
<path d="M0 0 C337.92 0 675.84 0 1024 0 C1024 337.92 1024 675.84 1024 1024 C686.08 1024 348.16 1024 0 1024 C0 686.08 0 348.16 0 0 Z " fill="#FEFEFE" transform="translate(0,0)"/>
<path d="M0 0 C1.10900665 -0.00101212 1.10900665 -0.00101212 2.24041748 -0.00204468 C30.38642016 0.0383939 58.05376777 4.95755779 84.625 14.25 C85.32028809 14.48831543 86.01557617 14.72663086 86.73193359 14.97216797 C97.14656917 18.56708008 106.90000489 23.09002934 116.625 28.25 C117.72013916 28.82258545 117.72013916 28.82258545 118.83740234 29.40673828 C134.95591914 37.87026088 148.99610735 48.23105509 162.625 60.25 C163.13659668 60.69843262 163.64819336 61.14686523 164.17529297 61.60888672 C182.70847092 77.93195528 197.33151105 96.88404525 209.625 118.25 C209.98932129 118.8702002 210.35364258 119.49040039 210.72900391 120.12939453 C226.47696804 147.08050912 236.58045352 180.44283547 236.86328125 211.7421875 C236.8730751 212.63740112 236.88286896 213.53261475 236.89295959 214.45495605 C237.06305656 234.04352168 237.02788429 253.0569093 232.625 272.25 C232.30354004 273.673125 232.30354004 273.673125 231.97558594 275.125 C221.97842149 317.96583281 197.67786372 358.26144542 162.625 385.25 C161.88765625 385.87648438 161.1503125 386.50296875 160.390625 387.1484375 C135.07259131 408.53781079 102.96747243 421.53666031 70.7824707 428.06713867 C51.9037656 431.92109184 51.9037656 431.92109184 37.625 444.25 C31.21842443 456.02605536 30.04097646 466.23054507 33.65625 479.21875 C42.45799039 506.75967959 62.10157506 527.66015974 87.27734375 541.109375 C117.78594301 556.61866979 153.96052476 558.68178938 186.359375 548.140625 C205.66074993 541.45660361 221.91280462 531.35324689 236.625 517.25 C237.44484375 516.49332031 238.2646875 515.73664062 239.109375 514.95703125 C265.00555843 490.30740323 277.60886605 453.64743528 283.375 419.1875 C283.30453644 416.2280306 282.75853704 415.38887853 280.671875 413.21875 C278.05134929 411.12876017 275.36572561 409.17909442 272.625 407.25 C260.60849429 398.11489442 254.36233897 385.21281977 252.21484375 370.42578125 C251.74862369 357.8378397 256.73326077 345.55374663 264.75 336.0625 C274.60167263 325.65442061 286.50253629 320.55156769 300.6875 319.9375 C313.94991771 320.08185285 325.97467441 326.15033148 335.55078125 335.0078125 C346.31509944 346.64381748 348.27054387 359.96436461 347.76123047 375.12988281 C347.00947796 386.82919967 340.02583911 397.46142543 331.625 405.25 C316.74137081 416.25 316.74137081 416.25 310.625 416.25 C310.47804688 417.19875 310.33109375 418.1475 310.1796875 419.125 C303.86027612 458.16154974 290.96220005 496.05261664 264.625 526.25 C264.19783691 526.74274414 263.77067383 527.23548828 263.33056641 527.74316406 C235.29027197 559.84769304 196.43245409 578.35649071 153.93798828 581.4453125 C114.91825025 583.25422444 75.7582828 570.46595818 46.625 544.25 C14.17401054 514.46141288 -1.77659883 472.68151138 -4.375 429.25 C-4.50633384 426.06818525 -4.61157625 422.88634197 -4.71069336 419.70336914 C-5.38552861 398.05523677 -9.10600762 379.23553402 -23.375 362.25 C-24.16970703 361.28707031 -24.16970703 361.28707031 -24.98046875 360.3046875 C-35.62379146 348.58389262 -50.10533799 344.21022243 -65.1875 341.75 C-78.84101821 339.51965392 -78.84101821 339.51965392 -83.3125 333.75 C-85.37139504 328.90554108 -85.56165985 324.42241024 -85.61328125 319.1953125 C-85.621353 318.41614471 -85.62942474 317.63697693 -85.63774109 316.834198 C-85.65154411 315.18847861 -85.66228311 313.54273105 -85.67016602 311.89697266 C-85.68169798 310.21915258 -85.70216917 308.54136953 -85.73168945 306.86376953 C-85.77445045 304.43236506 -85.79054438 302.0020467 -85.80078125 299.5703125 C-85.81828934 298.82637238 -85.83579742 298.08243225 -85.85383606 297.31594849 C-85.8324119 292.13572785 -84.66821465 289.22001472 -81.375 285.25 C-76.87999754 282.25333169 -72.86132382 282.13372423 -67.55078125 282.07421875 C-66.43896484 282.05037109 -65.32714844 282.02652344 -64.18164062 282.00195312 C-61.87192633 281.959348 -59.56197635 281.92790202 -57.25195312 281.90820312 C-49.77545258 281.72290657 -44.11971886 280.42884663 -37.375 277.25 C-36.385 276.92 -35.395 276.59 -34.375 276.25 C-33.25592038 274.41798339 -33.25592038 274.41798339 -32.375 272.25 C-31.85444031 271.27781776 -31.85444031 271.27781776 -31.32336426 270.28599548 C-28.24544657 264.12189731 -27.78816933 258.82708993 -27.84375 252.00390625 C-27.8399231 250.95275131 -27.83609619 249.90159637 -27.83215332 248.81858826 C-27.82944543 246.60748327 -27.83672739 244.39634564 -27.85351562 242.18530273 C-27.87491864 238.82527264 -27.8536854 235.46738582 -27.828125 232.10742188 C-27.83076889 229.947912 -27.83589514 227.78840345 -27.84375 225.62890625 C-27.83565308 224.63693741 -27.82755615 223.64496857 -27.81921387 222.62294006 C-27.92079031 214.95988167 -29.43778104 207.97451476 -34.26953125 201.84765625 C-42.43639799 195.31083623 -49.64382121 193.15318105 -60.171875 193.109375 C-61.4609375 193.09003906 -62.75 193.07070313 -64.078125 193.05078125 C-66.09664677 193.02195918 -68.11407224 193.00000266 -70.1328125 192.99951172 C-79.7787066 192.98296239 -87.86477415 192.20693626 -95.27392578 185.54174805 C-101.01556304 179.55502979 -102.54280784 173.40166289 -102.8125 165.25 C-102.63732789 157.81314762 -101.2751718 153.07580842 -95.9375 147.875 C-88.95642568 143.44797726 -81.40337532 142.92226428 -73.375 144.25 C-70.48243545 146.48155802 -69.10840898 149.08622557 -67.375 152.25 C-62.82250293 156.57487222 -58.35480803 158.29596084 -52.125 158.625 C-46.18993163 158.46459275 -40.36042559 156.7224169 -35.73828125 152.89453125 C-30.46537688 146.98824498 -28.77742178 140.68154579 -29.03125 132.9609375 C-29.89452215 126.15285937 -33.25688875 121.58695135 -38.6015625 117.4375 C-44.28590453 113.63124455 -50.74395612 113.40310037 -57.375 114.25 C-63.52291943 116.09080146 -67.0883064 118.46145373 -70.3125 124 C-72.05527261 126.52702029 -73.26153307 128.01936914 -76.33398438 128.65576172 C-79.59471803 128.91955927 -82.83661585 128.93443485 -86.10644531 128.94824219 C-94.85807151 129.060225 -101.11098785 131.49344054 -107.73828125 137.33203125 C-116.25574485 146.2232044 -118.71051646 155.4976617 -118.5859375 167.51953125 C-117.92115748 179.2762891 -113.80989869 190.34422844 -105.25 198.625 C-94.06659878 207.43932425 -83.12294792 207.95510357 -69.5 207.875 C-67.00289816 207.87113452 -64.50651302 207.87468369 -62.00949097 207.89559937 C-60.46910843 207.90756577 -58.92852185 207.90522428 -57.38821411 207.88589478 C-52.63120404 207.91068189 -49.342104 208.58955318 -45.375 211.25 C-41.4492634 215.63472349 -41.93980116 220.61245733 -41.9765625 226.1875 C-41.97225723 227.62403931 -41.97225723 227.62403931 -41.96786499 229.08959961 C-41.9658276 231.11019483 -41.97133467 233.13080992 -41.98388672 235.15136719 C-41.99994479 238.23938209 -41.98402677 241.32608818 -41.96484375 244.4140625 C-41.96682624 246.38021121 -41.97067003 248.34635912 -41.9765625 250.3125 C-41.97048981 251.23345459 -41.96441711 252.15440918 -41.9581604 253.10327148 C-42.01080103 257.91504031 -42.09378685 261.43848039 -45.375 265.25 C-48.74604073 267.7316677 -52.0401882 267.47613494 -56.125 267.453125 C-57.47006165 267.46368896 -58.81511434 267.4754481 -60.16015625 267.48828125 C-62.25548743 267.49850238 -64.34955503 267.50024611 -66.44482422 267.47998047 C-76.09922685 267.40873874 -84.27515573 268.39115564 -92.375 274.25 C-97.98569369 280.19088506 -99.77622639 286.80312332 -100.5625 294.6875 C-100.64435547 295.41904297 -100.72621094 296.15058594 -100.81054688 296.90429688 C-101.00841885 298.68514466 -101.19310707 300.46744927 -101.375 302.25 C-108.96962335 302.37772884 -116.56396545 302.46473821 -124.15942383 302.5246582 C-126.73830517 302.54966143 -129.31711666 302.5836753 -131.89575195 302.62719727 C-135.62208382 302.68847376 -139.34747152 302.71635342 -143.07421875 302.73828125 C-144.2101799 302.76408768 -145.34614105 302.7898941 -146.51652527 302.81648254 C-157.06704778 302.82010425 -166.49599508 300.24539824 -174.4375 293.0625 C-181.1064509 285.62122574 -183.11485212 278.2795648 -182.75390625 268.359375 C-181.73379407 259.98814511 -177.36197746 253.98057586 -171.375 248.25 C-170.64216797 247.49396484 -170.64216797 247.49396484 -169.89453125 246.72265625 C-166.7945204 244.22830305 -164.78279535 244.20712119 -160.80859375 244.625 C-154.89062768 245.78208284 -149.45844657 247.09137347 -145.8125 252.25 C-145.40257812 252.94222656 -144.99265625 253.63445312 -144.5703125 254.34765625 C-142.18668702 258.14120399 -138.55607577 259.85630808 -134.375 261.25 C-128.23957773 261.66596083 -123.96066437 260.7325175 -118.375 258.25 C-117.199375 257.816875 -117.199375 257.816875 -116 257.375 C-113.62279353 255.72924167 -113.24185622 253.97440526 -112.375 251.25 C-112.00375 250.30125 -111.6325 249.3525 -111.25 248.375 C-109.63839871 242.6192811 -110.03050005 237.66441334 -112.25 232.1796875 C-114.56560176 228.20778725 -118.29364778 225.29067611 -122.375 223.25 C-130.35047791 222.61899591 -136.91866183 222.19721361 -143.375 227.25 C-144.014375 227.9925 -144.65375 228.735 -145.3125 229.5 C-147.78744122 231.59995012 -149.60988087 231.99930085 -152.83984375 231.82421875 C-163.68116776 229.3686338 -174.11782995 222.39014911 -180.40625 213.3203125 C-185.7533546 204.5326529 -188.6558046 196.60317049 -187.375 186.25 C-184.23970553 174.49264573 -178.4923064 165.62114262 -168.33984375 158.87890625 C-164.20188287 156.6054811 -159.90385831 154.88733956 -155.46484375 153.2902832 C-150.80171188 151.63648853 -150.80171188 151.63648853 -147.375 148.25 C-146.76670937 146.34831396 -146.76670937 146.34831396 -146.625 144.3125 C-146.50898438 143.30896484 -146.50898438 143.30896484 -146.390625 142.28515625 C-146.28850435 140.26613131 -146.28850435 140.26613131 -146.83984375 138.43359375 C-149.51066593 127.53585943 -147.30218564 115.79241324 -141.609375 106.30859375 C-133.86717598 95.10679006 -124.75847082 87.97709152 -111.3125 84.9375 C-103.46350271 83.63553363 -96.43978344 84.10209529 -88.703125 85.79296875 C-85.50548437 86.42069351 -82.61595457 86.58070965 -79.375 86.25 C-76.05036474 83.86350439 -75.54892424 80.90459991 -74.5625 77.0625 C-72.03133218 68.41033319 -67.74711573 62.41048101 -60.375 57.25 C-53.15496216 53.44307096 -45.41172293 53.35703079 -37.375 54.25 C-31.65099642 56.64282117 -28.99024625 59.35695448 -25.97265625 64.76171875 C-25.46605469 65.66535156 -24.95945312 66.56898438 -24.4375 67.5 C-23.74333984 68.80710937 -23.74333984 68.80710937 -23.03515625 70.140625 C-21.52469424 72.45506886 -21.52469424 72.45506886 -18.85546875 73.1015625 C-16.28953926 73.40430346 -16.28953926 73.40430346 -13.625 72.375 C-10.7038737 69.61615849 -10.33530529 67.7305222 -10.1171875 63.78515625 C-10.84143911 56.66334871 -15.2031978 50.54687599 -20.34765625 45.78515625 C-30.42598861 38.15358666 -41.18891274 37.43904417 -53.375 38.25 C-64.82773562 39.9415287 -75.159652 47.42774044 -82.375 56.25 C-85.20156841 60.39727941 -87.78358765 64.47576295 -89.375 69.25 C-89.94307373 69.23428955 -90.51114746 69.2185791 -91.09643555 69.20239258 C-110.42887398 68.73925825 -127.56576517 70.41116315 -142.8125 83.625 C-154.52666201 94.97429467 -163.09981852 109.48705661 -163.62109375 126.1484375 C-163.66333985 130.52154913 -163.55333835 134.88071031 -163.375 139.25 C-164.48617187 139.79527344 -165.59734375 140.34054687 -166.7421875 140.90234375 C-182.87429043 148.99924401 -193.74297826 158.0520153 -200.3125 175.375 C-204.80021221 189.08471422 -203.12373081 202.65407752 -197.27734375 215.69921875 C-193.29826102 223.42808114 -187.58002104 230.21081472 -181.375 236.25 C-181.95507812 236.83265625 -182.53515625 237.4153125 -183.1328125 238.015625 C-193.29202177 248.67776542 -199.03584686 260.46080263 -198.68359375 275.296875 C-197.45843755 287.02115461 -192.24674759 297.93032506 -183.6875 306.0625 C-171.39638607 315.9190279 -156.90751575 318.67164666 -141.51171875 318.76171875 C-140.35372269 318.77966995 -139.19572662 318.79762115 -138.00263977 318.81611633 C-134.35596201 318.86967844 -130.70941093 318.90394021 -127.0625 318.9375 C-124.56834194 318.97072087 -122.07420049 319.00521483 -119.58007812 319.04101562 C-113.51183262 319.12537297 -107.44356953 319.19394809 -101.375 319.25 C-101.25527832 320.26900391 -101.13555664 321.28800781 -101.01220703 322.33789062 C-100.84444605 323.6940563 -100.67629376 325.05017362 -100.5078125 326.40625 C-100.43022705 327.0755957 -100.3526416 327.74494141 -100.27270508 328.43457031 C-99.14313192 337.36201805 -95.74579463 344.20366855 -88.625 349.79296875 C-80.47854361 355.06836499 -70.95170037 356.22486817 -61.51904297 357.5925293 C-48.94211682 359.58714243 -39.20835288 365.7824004 -31.3671875 375.8203125 C-22.11855365 389.55313246 -18.97789806 404.12184878 -19.25 420.4375 C-19.25902344 421.48486328 -19.26804687 422.53222656 -19.27734375 423.61132812 C-19.30059925 426.15780514 -19.33327431 428.70377031 -19.375 431.25 C-36.81741939 428.00620153 -53.58489692 411.92461341 -66.375 400.25 C-67.19355469 399.50363281 -68.01210938 398.75726562 -68.85546875 397.98828125 C-73.33005488 393.70376603 -77.15734087 389.07659167 -80.9375 384.1875 C-96.4939891 364.13998484 -115.41771103 356.82171963 -140.21484375 353.609375 C-169.58198679 349.7514622 -193.11261465 337.97858996 -212.33984375 314.890625 C-231.25275348 289.33032069 -235.82481587 257.71070633 -235.75 226.75 C-235.74978851 225.93083099 -235.74957703 225.11166199 -235.74935913 224.26766968 C-235.69506636 203.02941753 -232.67440702 182.55287678 -226.375 162.25 C-226.00616699 161.05697266 -226.00616699 161.05697266 -225.62988281 159.83984375 C-214.72421042 125.30293395 -195.45814326 95.19937794 -170.375 69.25 C-169.42753906 68.24259766 -169.42753906 68.24259766 -168.4609375 67.21484375 C-164.36135691 62.95011418 -159.84723787 59.25511764 -155.234375 55.55859375 C-153.42901199 54.10098509 -151.64435041 52.61700012 -149.890625 51.09765625 C-129.28476165 33.40349098 -103.80868285 21.22739286 -78.375 12.25 C-77.54709961 11.95754395 -76.71919922 11.66508789 -75.86621094 11.36376953 C-51.3858492 2.9303197 -25.7738028 0.02147635 0 0 Z " fill="#0D87DC" transform="translate(474.375,218.75)"/>
<path d="M0 0 C0.61101562 0.46921875 1.22203125 0.9384375 1.8515625 1.421875 C2.7178125 1.999375 3.5840625 2.576875 4.4765625 3.171875 C11.84480765 10.15231778 16.79831156 19.4945064 18.8515625 29.421875 C18.89044599 31.75488433 18.896426 34.08897301 18.8515625 36.421875 C19.8415625 36.091875 20.8315625 35.761875 21.8515625 35.421875 C35.7625732 32.02414141 50.4468762 34.53554545 62.66796875 41.890625 C76.61420714 51.67045586 84.92714338 64.91467711 88.8515625 81.421875 C89.06636413 84.24244486 89.04379705 87.03293776 88.9765625 89.859375 C88.96753906 90.59091797 88.95851563 91.32246094 88.94921875 92.07617188 C88.92592403 93.85821798 88.8900644 95.64009259 88.8515625 97.421875 C90.1096875 97.7725 91.3678125 98.123125 92.6640625 98.484375 C108.59397958 103.8691357 121.35488731 116.62158967 128.8515625 131.421875 C135.22813491 146.73624697 135.45553558 161.85701514 129.8515625 177.421875 C126.88854741 184.42040759 123.07131395 190.88577498 117.8515625 196.421875 C119.31388333 199.47245816 120.99521318 202.30536769 122.7890625 205.171875 C130.94769649 218.70326796 132.02823112 234.80570685 128.3515625 250.046875 C122.0357305 270.74507531 109.40593148 288.030331 90.30810547 298.67114258 C81.85485761 303.15744591 73.32019523 306.25384947 63.7890625 307.359375 C58.59023011 307.98916444 58.59023011 307.98916444 54.8515625 311.359375 C54.1915625 312.37 53.5315625 313.380625 52.8515625 314.421875 C48.85448425 317.44125066 45.53194889 317.85394395 40.6015625 318.234375 C30.7363637 319.30359214 25.81269407 323.29116959 19.1640625 330.359375 C10.68450241 339.1579154 0.09125512 343.44879286 -12.03930664 343.71459961 C-28.00879948 343.83563722 -40.75588299 340.28617966 -52.8359375 329.296875 C-65.31650393 315.82626364 -69.29879424 299.29917383 -69.29560852 281.45492554 C-69.29928521 280.34753954 -69.3029619 279.24015353 -69.30675 278.09921038 C-69.31776681 274.38693633 -69.32162729 270.67469028 -69.32543945 266.96240234 C-69.33170557 264.30121699 -69.33833999 261.6400346 -69.34535217 258.97885132 C-69.36507683 250.99309503 -69.375177 243.00733754 -69.38407996 235.02156299 C-69.38846879 231.25649715 -69.39383399 227.4914327 -69.39906883 223.72636795 C-69.41607592 211.20346303 -69.43056934 198.68055896 -69.43781757 186.15764427 C-69.43972731 182.91092299 -69.44164767 179.66420172 -69.44360352 176.41748047 C-69.44432913 175.20712074 -69.44432913 175.20712074 -69.4450694 173.97230931 C-69.45336704 160.90543718 -69.47870179 147.83865666 -69.51118419 134.77182452 C-69.54429436 121.34250743 -69.56226984 107.91323685 -69.56546181 94.48387873 C-69.56762308 86.94937301 -69.57631556 79.41500096 -69.60192299 71.88053513 C-69.62368403 65.46318864 -69.63165392 59.04600833 -69.62195621 52.62862913 C-69.61742722 49.35817218 -69.6214207 46.08812744 -69.63871765 42.81770325 C-69.65646774 39.26175833 -69.64931401 35.70667269 -69.63618469 32.15072632 C-69.64715394 31.1314352 -69.65812318 30.11214408 -69.66942483 29.06196535 C-69.57130853 17.99729039 -66.55102651 8.60152364 -58.7890625 0.62109375 C-42.62202255 -12.84346763 -16.6664399 -12.24225767 0 0 Z " fill="#0F89DD" transform="translate(544.1484375,259.578125)"/>
<path d="M0 0 C0.61101562 0.46921875 1.22203125 0.9384375 1.8515625 1.421875 C2.7178125 1.999375 3.5840625 2.576875 4.4765625 3.171875 C11.84480765 10.15231778 16.79831156 19.4945064 18.8515625 29.421875 C18.89044599 31.75488433 18.896426 34.08897301 18.8515625 36.421875 C19.8415625 36.091875 20.8315625 35.761875 21.8515625 35.421875 C35.7625732 32.02414141 50.4468762 34.53554545 62.66796875 41.890625 C76.61420714 51.67045586 84.92714338 64.91467711 88.8515625 81.421875 C89.06636413 84.24244486 89.04379705 87.03293776 88.9765625 89.859375 C88.96753906 90.59091797 88.95851563 91.32246094 88.94921875 92.07617188 C88.92592403 93.85821798 88.8900644 95.64009259 88.8515625 97.421875 C90.1096875 97.7725 91.3678125 98.123125 92.6640625 98.484375 C108.59397958 103.8691357 121.35488731 116.62158967 128.8515625 131.421875 C135.22813491 146.73624697 135.45553558 161.85701514 129.8515625 177.421875 C126.88854741 184.42040759 123.07131395 190.88577498 117.8515625 196.421875 C119.31388333 199.47245816 120.99521318 202.30536769 122.7890625 205.171875 C130.94769649 218.70326796 132.02823112 234.80570685 128.3515625 250.046875 C122.0357305 270.74507531 109.40593148 288.030331 90.30810547 298.67114258 C81.85485761 303.15744591 73.32019523 306.25384947 63.7890625 307.359375 C58.59023011 307.98916444 58.59023011 307.98916444 54.8515625 311.359375 C54.1915625 312.37 53.5315625 313.380625 52.8515625 314.421875 C48.85448425 317.44125066 45.53194889 317.85394395 40.6015625 318.234375 C30.7363637 319.30359214 25.81269407 323.29116959 19.1640625 330.359375 C10.68450241 339.1579154 0.09125512 343.44879286 -12.03930664 343.71459961 C-28.00879948 343.83563722 -40.75588299 340.28617966 -52.8359375 329.296875 C-65.31650393 315.82626364 -69.29879424 299.29917383 -69.29560852 281.45492554 C-69.29928521 280.34753954 -69.3029619 279.24015353 -69.30675 278.09921038 C-69.31776681 274.38693633 -69.32162729 270.67469028 -69.32543945 266.96240234 C-69.33170557 264.30121699 -69.33833999 261.6400346 -69.34535217 258.97885132 C-69.36507683 250.99309503 -69.375177 243.00733754 -69.38407996 235.02156299 C-69.38846879 231.25649715 -69.39383399 227.4914327 -69.39906883 223.72636795 C-69.41607592 211.20346303 -69.43056934 198.68055896 -69.43781757 186.15764427 C-69.43972731 182.91092299 -69.44164767 179.66420172 -69.44360352 176.41748047 C-69.44432913 175.20712074 -69.44432913 175.20712074 -69.4450694 173.97230931 C-69.45336704 160.90543718 -69.47870179 147.83865666 -69.51118419 134.77182452 C-69.54429436 121.34250743 -69.56226984 107.91323685 -69.56546181 94.48387873 C-69.56762308 86.94937301 -69.57631556 79.41500096 -69.60192299 71.88053513 C-69.62368403 65.46318864 -69.63165392 59.04600833 -69.62195621 52.62862913 C-69.61742722 49.35817218 -69.6214207 46.08812744 -69.63871765 42.81770325 C-69.65646774 39.26175833 -69.64931401 35.70667269 -69.63618469 32.15072632 C-69.64715394 31.1314352 -69.65812318 30.11214408 -69.66942483 29.06196535 C-69.57130853 17.99729039 -66.55102651 8.60152364 -58.7890625 0.62109375 C-42.62202255 -12.84346763 -16.6664399 -12.24225767 0 0 Z M-51.1484375 17.421875 C-52.35769536 21.04964858 -52.50886757 24.51952414 -52.70384216 28.30551147 C-52.74599647 29.10231964 -52.78815078 29.89912781 -52.83158249 30.72008169 C-53.29251266 40.23986318 -53.28092586 49.75507745 -53.26196289 59.28369141 C-53.26168003 61.30602517 -53.26184068 63.32835904 -53.2624054 65.35069275 C-53.2626895 70.78128104 -53.25685587 76.21184674 -53.24983144 81.64242983 C-53.24353296 87.33985558 -53.242989 93.03728199 -53.24180603 98.73471069 C-53.23871172 109.49702864 -53.2305242 120.25933629 -53.22045654 131.02164972 C-53.20923607 143.2854358 -53.20377007 155.54922241 -53.19876111 167.81301236 C-53.18833978 193.01597226 -53.17077753 218.21892305 -53.1484375 243.421875 C-48.85690305 243.50994585 -44.56560526 243.56262421 -40.2734375 243.609375 C-39.06945312 243.63451172 -37.86546875 243.65964844 -36.625 243.68554688 C-28.14252937 243.75469745 -19.97324468 243.59565117 -13.2109375 237.984375 C-12.5303125 237.13875 -11.8496875 236.293125 -11.1484375 235.421875 C-10.62054123 234.89628998 -10.09264496 234.37070496 -9.54875183 233.82919312 C-7.39424102 230.1253155 -7.68959746 226.55649915 -7.6809082 222.34228516 C-7.66761978 221.4247496 -7.65433136 220.50721405 -7.64064026 219.56187439 C-7.60194213 216.52814099 -7.58634999 213.49488679 -7.57421875 210.4609375 C-7.55949991 208.35110362 -7.54462035 206.24127087 -7.52958679 204.13143921 C-7.50259166 199.70803771 -7.48904589 195.28480438 -7.48266602 190.86132812 C-7.4717923 185.19571796 -7.41007309 179.53188706 -7.3359499 173.86680031 C-7.28756134 169.50869742 -7.27513871 165.15102361 -7.27260399 160.79267502 C-7.26537387 158.70423024 -7.24490378 156.61578744 -7.21090126 154.52760696 C-7.16692773 151.60381139 -7.17362008 148.68422647 -7.19262695 145.76025391 C-7.15655334 144.46955742 -7.15655334 144.46955742 -7.11975098 143.15278625 C-7.1895275 139.5038982 -7.26994152 137.30960473 -9.90773582 134.64408493 C-12.01344652 133.05682982 -12.01344652 133.05682982 -14.19400311 131.77228355 C-18.27585711 128.95194301 -19.58144287 124.68244183 -20.74609375 120.0390625 C-21.80988422 113.44975842 -20.61052782 108.12645563 -17.1484375 102.421875 C-13.24589713 98.0495844 -8.91778456 94.74950635 -3.01171875 94.05078125 C4.7064257 93.90643751 10.88552208 94.12717246 16.8515625 99.421875 C21.88460852 105.65557538 23.57163673 111.48820003 22.8515625 119.421875 C21.61284723 124.53157551 19.54179922 128.6291317 15.8515625 132.421875 C15.27881592 132.74349609 14.70606934 133.06511719 14.1159668 133.39648438 C12.02639535 134.57236075 10.47600271 135.6495913 8.8515625 137.421875 C7.99015269 140.73035413 8.18399401 143.844025 8.4140625 147.234375 C8.44564453 148.11802734 8.47722656 149.00167969 8.50976562 149.91210938 C8.59192508 152.0834664 8.71747761 154.25310513 8.8515625 156.421875 C13.01701375 156.68514088 17.1803137 156.84369584 21.3515625 156.984375 C23.11113281 157.09749023 23.11113281 157.09749023 24.90625 157.21289062 C31.57999551 157.46131145 31.57999551 157.46131145 37.3112793 154.47070312 C39.41015157 152.11071242 39.41015157 152.11071242 41.10620117 149.62719727 C44.16259312 145.76534407 48.1215772 144.36507739 52.8515625 143.421875 C60.31869735 142.93239754 66.12342192 144.58748685 71.8515625 149.421875 C76.61251667 154.55869397 78.14144008 158.28392512 78.1640625 165.296875 C78.18082031 166.49054688 78.19757813 167.68421875 78.21484375 168.9140625 C77.55076347 175.32636455 74.59830085 179.24022455 69.8515625 183.421875 C63.57401281 187.70898211 57.15546251 188.40045434 49.734375 187.03125 C43.82430397 185.23753195 40.3643323 181.36823464 36.8515625 176.421875 C36.1915625 175.101875 35.5315625 173.781875 34.8515625 172.421875 C26.2715625 172.421875 17.6915625 172.421875 8.8515625 172.421875 C8.81289063 178.51076172 8.81289063 178.51076172 8.7734375 184.72265625 C8.74169469 187.98802903 8.70604079 191.25330779 8.66777039 194.51860809 C8.62861741 197.94968026 8.59613075 201.38050044 8.58056641 204.81176758 C8.56232798 208.76155629 8.51228964 212.71065433 8.4609375 216.66015625 C8.45909454 218.47801384 8.45909454 218.47801384 8.45721436 220.33259583 C8.2728528 231.18163295 5.84839039 241.59665286 -2.1484375 249.421875 C-14.71821276 258.99056205 -29.0333137 259.52707824 -44.2265625 260.02734375 C-45.22945313 260.06472656 -46.23234375 260.10210938 -47.265625 260.140625 C-48.17940918 260.17091797 -49.09319336 260.20121094 -50.03466797 260.23242188 C-52.13309 260.1928075 -52.13309 260.1928075 -53.1484375 261.421875 C-54.5072699 280.36523391 -54.6914135 300.85554559 -42.5546875 316.47265625 C-36.26564164 323.39950629 -26.91689666 327.7312159 -17.66015625 328.67578125 C-7.44958326 329.12348671 0.7674319 325.97204227 8.59375 319.4921875 C12.01149893 316.35826547 15.22576943 313.04046661 18.39453125 309.65625 C23.2985456 305.19663759 27.37630584 304.1180149 33.9140625 304.046875 C39.32944569 303.74781321 39.32944569 303.74781321 44.1640625 301.421875 C46.48288298 297.29952748 46.71132197 294.08988106 46.8515625 289.421875 C46.97144531 288.28363281 47.09132813 287.14539063 47.21484375 285.97265625 C47.47915907 282.26040676 47.55072226 279.08140107 46.8515625 275.421875 C44.80698822 273.08216343 42.74428538 271.69905441 40.12109375 270.05078125 C35.72823112 266.8979005 34.33176408 262.34352249 33.48046875 257.1640625 C33.14316068 251.29694636 34.78754688 246.3983971 37.8515625 241.421875 C42.29701864 236.85627139 47.85128259 234.30647102 54.2265625 233.984375 C60.22841626 234.23999058 65.49733302 235.96893569 69.71484375 240.36328125 C74.68810861 246.80834764 75.77205254 252.3384912 74.8515625 260.421875 C72.77129313 266.95186855 69.63159017 270.87570932 64.30078125 275.00390625 C61.77196531 277.47819247 61.91027217 280.01671407 61.8515625 283.421875 C61.83867188 284.15535156 61.82578125 284.88882812 61.8125 285.64453125 C61.79212204 287.5702487 61.81778129 289.49634604 61.8515625 291.421875 C75.92918556 290.37908811 88.1911918 283.00569545 97.7890625 272.859375 C104.51515865 264.91035227 108.57155863 256.2490741 111.8515625 246.421875 C112.2228125 245.32552734 112.2228125 245.32552734 112.6015625 244.20703125 C115.51622986 234.30930667 114.17455062 224.66021404 109.8515625 215.421875 C107.08821569 211.18388836 103.84995341 207.49706521 100.4140625 203.796875 C98.23037104 200.47766399 98.47325738 198.34211374 98.8515625 194.421875 C100.609375 191.68359375 100.609375 191.68359375 102.9765625 189.109375 C113.67532799 176.81252346 118.08927951 165.71403717 117.05419922 149.41796875 C115.87789647 137.83067808 107.98110409 127.218673 99.1796875 119.9765625 C93.58654518 116.24154464 87.26650824 113.84959243 81.0859375 111.265625 C80.28671875 110.9253125 79.4875 110.585 78.6640625 110.234375 C77.96925781 109.95207031 77.27445313 109.66976562 76.55859375 109.37890625 C74.8515625 108.421875 74.8515625 108.421875 72.8515625 105.421875 C72.78458381 102.58256108 72.81363123 99.8173496 72.9140625 96.984375 C73.10069772 84.82642374 70.89528618 75.49981811 63.8515625 65.421875 C63.1090625 64.349375 62.3665625 63.276875 61.6015625 62.171875 C55.39063917 55.96095167 47.32860069 51.42332694 38.43359375 51.19140625 C36.84369038 51.19535142 35.25378203 51.20987811 33.6640625 51.234375 C32.45459961 51.2353418 32.45459961 51.2353418 31.22070312 51.23632812 C27.76844662 51.26215548 25.15995309 51.31907814 21.8515625 52.421875 C16.29913504 52.7859686 12.55695967 52.73704119 7.8515625 49.421875 C4.62414383 45.20830063 3.67482462 41.96449518 2.9765625 36.734375 C1.68292235 27.91108575 -1.51802876 20.11857113 -8.5234375 14.359375 C-22.63199149 4.59739572 -39.31907397 4.44202474 -51.1484375 17.421875 Z " fill="#FBFDFE" transform="translate(544.1484375,259.578125)"/>
<path d="M0 0 C3.83084349 2.61193874 6.65161815 5.67823629 8.75 9.875 C9.51325018 16.71922703 8.94112923 21.36035628 4.75 26.875 C0.96914991 30.56132884 -2.13128869 31.1786138 -7.25 31.375 C-12.36720994 31.18500458 -15.43069828 30.50333663 -19.25 26.875 C-23.18990041 22.29619682 -24.67501709 17.85559767 -24.25 11.875 C-22.64992519 6.53827989 -19.97671483 2.90494541 -15.25 -0.125 C-10.0828841 -1.84737197 -5.14400242 -1.78061622 0 0 Z " fill="#FBFDFE" transform="translate(782.25,572.125)"/>
<path d="M0 0 C0.33 0.66 0.66 1.32 1 2 C1.66 2 2.32 2 3 2 C3.0825 2.804375 3.165 3.60875 3.25 4.4375 C4.07200756 8.3420359 5.50171923 11.48624452 7.2578125 15.046875 C7.50273437 15.69140625 7.74765625 16.3359375 8 17 C7.67 17.66 7.34 18.32 7 19 C7.66 19 8.32 19 9 19 C9.12375 20.134375 9.2475 21.26875 9.375 22.4375 C9.58125 23.613125 9.7875 24.78875 10 26 C10.66 26.33 11.32 26.66 12 27 C12.625 29.5625 12.625 29.5625 13 32 C13.66 32 14.32 32 15 32 C15 32.99 15 33.98 15 35 C15.66 35.33 16.32 35.66 17 36 C17.625 38.5625 17.625 38.5625 18 41 C18.66 41 19.32 41 20 41 C20.99 42.98 21.98 44.96 23 47 C23.66 47 24.32 47 25 47 C25.0825 47.556875 25.165 48.11375 25.25 48.6875 C26.24389778 51.75201816 27.83162599 53.64029887 30 56 C31.485 56.495 31.485 56.495 33 57 C33.28875 57.7425 33.5775 58.485 33.875 59.25 C35.65229938 63.59450959 38.89044305 66.11235444 42.5 69 C45 71 45 71 47.25 73.375 C50.33115884 76.31610617 53.59493698 78.43471634 57.20703125 80.66796875 C57.79871094 81.10753906 58.39039063 81.54710937 59 82 C59 82.66 59 83.32 59 84 C59.886875 84.268125 60.77375 84.53625 61.6875 84.8125 C69.26436782 87.52873563 69.26436782 87.52873563 71 91 C72.3231847 91.37157926 73.65971827 91.69580636 75 92 C76.88587117 92.74384068 78.75999775 93.51778268 80.625 94.3125 C82.22021484 94.98152344 82.22021484 94.98152344 83.84765625 95.6640625 C85.77667228 96.48156372 87.70211946 97.30763505 89.62109375 98.1484375 C94.88965228 100.39073601 99.88137804 101.67036566 105.53515625 102.56640625 C108.47358694 103.08330927 111.17318598 104.05772866 114 105 C116.67734662 105.40160199 119.31038461 105.7329417 122 106 C122.72179443 106.08411133 123.44358887 106.16822266 124.18725586 106.25488281 C130.73919754 106.98492702 137.22267466 107.1927605 143.8125 107.1875 C144.86622803 107.18669434 145.91995605 107.18588867 147.00561523 107.18505859 C157.13412314 107.1053988 166.25710321 105.86555788 176 103 C177.9630732 102.7783627 179.92620724 102.55704186 181.890625 102.34765625 C185.02079884 101.83175723 187.90335772 100.75844282 190.8828125 99.69140625 C193 99 193 99 196.5 98.4375 C197.7375 98.2209375 197.7375 98.2209375 199 98 C199.33 97.34 199.66 96.68 200 96 C203.2668126 94.45733849 206.44765442 93.60897353 210 93 C210 92.34 210 91.68 210 91 C211.96466413 89.93224776 213.96855359 88.93446535 216 88 C216.66 88.33 217.32 88.66 218 89 C218 88.34 218 87.68 218 87 C220.9826906 85.47551369 223.818202 84.06059933 227 83 C227.33 82.34 227.66 81.68 228 81 C229.65661761 79.98343919 231.32524856 78.98640021 233 78 C234.77271515 76.67570836 236.52288868 75.32074035 238.25 73.9375 C239.55710937 72.89916016 239.55710937 72.89916016 240.890625 71.83984375 C243.07222875 70.17228458 243.07222875 70.17228458 244 68 C244.99 68 245.98 68 247 68 C247 68.66 247 69.32 247 70 C245.040325 71.7637075 243.08136532 73.38967324 241 75 C240.36989014 75.48839355 239.73978027 75.97678711 239.09057617 76.47998047 C205.85465568 101.79830436 164.84162975 114.28169289 123.12866211 108.91455078 C85.33740308 103.59732108 50.02536432 86.02988511 26.16796875 55.48046875 C15.53606712 41.23599841 0 18.50107012 0 0 Z " fill="#0A4FBE" transform="translate(478,690)"/>
<path d="M0 0 C0.99 0.99 0.99 0.99 2 2 C1.68978615 6.34299391 0.26524019 9.99864625 -1.3125 13.99609375 C-2.14128611 16.20782132 -2.14128611 16.20782132 -2.5 19.5 C-3.09396684 23.65776785 -4.44674749 27.12426517 -6 31 C-6.50129868 32.39536745 -7.00131954 33.7911947 -7.5 35.1875 C-8.68828819 38.3748355 -10.24856695 41.08094492 -12 44 C-12.52136124 45.3251265 -13.01978945 46.65941222 -13.5 48 C-15.09001888 52.39932686 -17.3257834 55.99954956 -19.9375 59.875 C-22.05139147 62.9915389 -22.05139147 62.9915389 -23.875 66.375 C-27.4177391 72.64078563 -31.36238562 77.52307093 -37 82 C-37 82.99 -37 83.98 -37 85 C-38.64556566 86.03435556 -40.3170608 87.02763513 -42 88 C-43.68816933 89.64488294 -45.35353315 91.31337542 -47 93 C-48.09570485 93.90616349 -49.19992012 94.80213714 -50.3125 95.6875 C-51.199375 96.450625 -52.08625 97.21375 -53 98 C-53 98.66 -53 99.32 -53 100 C-53.886875 100.433125 -54.77375 100.86625 -55.6875 101.3125 C-59.32580646 103.16597688 -62.77810188 105.04539209 -66 107.5625 C-68.24145395 109.17354502 -70.43358003 109.99847025 -73 111 C-73.825 111.515625 -74.65 112.03125 -75.5 112.5625 C-78.05674363 114.03262759 -80.10026145 114.58575164 -83 115 C-83.33 115.99 -83.66 116.98 -84 118 C-84.66 117.67 -85.32 117.34 -86 117 C-88.38029398 117.94313535 -90.68281869 118.92200696 -93 120 C-96.87146345 121.79409282 -99.72569295 122.19880498 -104 122 C-103 120 -103 120 -99.703125 118.87890625 C-98.6517334 118.5682019 -98.6517334 118.5682019 -97.57910156 118.2512207 C-63.26589045 108.10472505 -36.40969864 84.3044955 -19.25683594 53.29077148 C-10.88753069 37.6233875 -5.88965136 21.52363746 -1.62915039 4.31225586 C-1 2 -1 2 0 0 Z M-23 64 C-21 65 -21 65 -21 65 Z " fill="#0956C3" transform="translate(756,649)"/>
<path d="M0 0 C2.97717008 1.98478006 4.62826444 3.36831119 5.44140625 6.9375 C5.66684799 10.77728188 5.23190202 12.63668683 3.125 15.9375 C0.59545149 18.39265003 -0.30574285 18.93828825 -3.8125 19.25 C-7.44165156 18.96536066 -9.14296165 18.22214094 -12 16 C-14.32402951 12.79062591 -14.47570691 9.88493979 -14 6 C-10.24483925 0.36725887 -6.74599262 -1.10928368 0 0 Z " fill="#1190E3" transform="translate(549,366)"/>
<path d="M0 0 C1.10900665 -0.00101212 1.10900665 -0.00101212 2.24041748 -0.00204468 C30.46740309 0.03851025 57.93697148 5.11303682 84.625 14.25 C85.615 14.58 86.605 14.91 87.625 15.25 C87.295 16.57 86.965 17.89 86.625 19.25 C86.295 18.59 85.965 17.93 85.625 17.25 C83.09766765 16.59444881 83.09766765 16.59444881 80.625 16.25 C80.625 15.59 80.625 14.93 80.625 14.25 C79.985625 14.311875 79.34625 14.37375 78.6875 14.4375 C75.12126254 14.21915893 72.28711581 13.21587548 68.93359375 12.04296875 C62.27000287 9.75412112 55.53225678 8.71182236 48.578125 7.71484375 C46.195045 7.33972931 43.95770548 6.8388826 41.625 6.25 C29.4043195 3.22943686 29.4043195 3.22943686 17.625 4.25 C16.03762899 4.16218017 14.45374727 4.00743842 12.875 3.8203125 C6.11694386 3.13436098 -0.58728505 3.10279374 -7.375 3.125 C-8.58800781 3.12113281 -9.80101562 3.11726562 -11.05078125 3.11328125 C-12.20964844 3.11457031 -13.36851562 3.11585938 -14.5625 3.1171875 C-15.60792969 3.11831543 -16.65335937 3.11944336 -17.73046875 3.12060547 C-20.48277919 3.13621131 -20.48277919 3.13621131 -23.375 4.25 C-26.5587798 4.50814431 -29.73637703 4.69144225 -32.92578125 4.85546875 C-35.95621967 5.02880744 -38.47845849 5.28448616 -41.375 6.25 C-41.375 5.59 -41.375 4.93 -41.375 4.25 C-42.035 3.92 -42.695 3.59 -43.375 3.25 C-41.50136327 2.9294276 -39.62595905 2.6191902 -37.75 2.3125 C-36.70585937 2.13847656 -35.66171875 1.96445313 -34.5859375 1.78515625 C-23.13588575 0.18220783 -11.54339758 0.00961868 0 0 Z " fill="#16A4F0" transform="translate(474.375,218.75)"/>
<path d="M0 0 C0.99 0.495 0.99 0.495 2 1 C-23.12738766 27.88046122 -61.21813488 44.96595396 -96.81640625 52.203125 C-98.83607015 52.61393171 -100.8556014 53.02539111 -102.875 53.4375 C-103.85670166 53.63778809 -104.83840332 53.83807617 -105.84985352 54.04443359 C-112.50667811 55.47828073 -117.99298805 57.39972819 -123.890625 60.86328125 C-126 62 -126 62 -129 62 C-126.99486625 58.99229937 -125.42900705 57.24691165 -122 56 C-120.68 56 -119.36 56 -118 56 C-118 55.34 -118 54.68 -118 54 C-111.91401841 52.24442839 -105.90848801 50.73944368 -99.6875 49.5625 C-97.506375 49.10598546 -95.34297403 48.56537024 -93.1875 48 C-89.82940687 47.13846674 -86.52975226 46.72456337 -83.08203125 46.34375 C-78.53835933 45.59357527 -74.04236007 44.07018099 -69.96484375 41.93359375 C-68 41 -68 41 -64.3125 40.5 C-62.6728125 40.2525 -62.6728125 40.2525 -61 40 C-60.505 39.01 -60.505 39.01 -60 38 C-58.15990862 37.31848467 -56.31749745 36.64267994 -54.46484375 35.99609375 C-50.58477526 34.42807875 -47.03348068 32.30290629 -43.41796875 30.20703125 C-41 29 -41 29 -38 29 C-38 28.34 -38 27.68 -38 27 C-37.0925 26.566875 -36.185 26.13375 -35.25 25.6875 C-32.549439 24.28528564 -30.39511401 22.83625408 -28 21 C-27.319375 20.67 -26.63875 20.34 -25.9375 20 C-23.94373296 19.10355148 -23.94373296 19.10355148 -22.5625 17.5 C-21 16 -21 16 -18.625 15.125 C-15.28606504 13.69402787 -13.53278398 11.59308836 -11 9 C-9.24653607 7.68589159 -7.45186327 6.44741003 -5.6484375 5.203125 C-3.54493813 3.66786954 -1.7665513 1.9078754 0 0 Z " fill="#095BC7" transform="translate(645,594)"/>
<path d="M0 0 C3.52829229 3.46506125 6.84312801 7.0468728 10.125 10.75 C29.30946833 31.8574551 58.32183214 46.35516581 87 48 C99.11483688 48.47067039 111.09683678 48.42682296 123.07421875 46.4375 C125.77157228 46.03415742 128.27876749 45.9192213 131 46 C129.20436715 48.29203648 128.27647275 48.95003011 125.36328125 49.4765625 C124.35652344 49.52554688 123.34976563 49.57453125 122.3125 49.625 C120.70181641 49.72167969 120.70181641 49.72167969 119.05859375 49.8203125 C118.04925781 49.87960937 117.03992188 49.93890625 116 50 C114.62314281 50.15055581 113.2476183 50.31473863 111.875 50.5 C108.85511949 50.889662 105.83742581 51.2775122 102.8125 51.625 C101.61560547 51.76808594 101.61560547 51.76808594 100.39453125 51.9140625 C97.76632237 52.00838647 95.5705872 51.52679214 93 51 C91.2083077 50.9815017 89.41581583 51.00349031 87.625 51.0625 C82.94090255 51.11293443 79.40717239 50.52901899 75 49 C72.10518635 48.21810188 69.19921966 47.6603679 66.25 47.125 C61.56752219 46.20091749 57.41862529 44.7974069 53 43 C51.63875 42.4740625 51.63875 42.4740625 50.25 41.9375 C48.11039055 41.04599606 46.07224522 40.03612261 44 39 C42.33859237 38.32033324 40.67299959 37.65061095 39 37 C39 36.34 39 35.68 39 35 C38.12085938 34.74734375 37.24171875 34.4946875 36.3359375 34.234375 C32.89689783 32.96184978 30.53908471 31.45479137 27.625 29.25 C26.67882812 28.53972656 25.73265625 27.82945312 24.7578125 27.09765625 C23.84773437 26.40542969 22.93765625 25.71320312 22 25 C21.21367188 24.42121094 20.42734375 23.84242188 19.6171875 23.24609375 C11.64739614 17.37903332 5.48728058 10.23092087 0 2 C0 1.34 0 0.68 0 0 Z " fill="#054CBE" transform="translate(520,725)"/>
<path d="M0 0 C2.69990662 1.79993774 4.5418865 3.083773 6 6 C6.43297907 9.81021578 6.088281 11.81284429 4.4375 15.3125 C2 18 2 18 -1.5 19 C-6.45454545 19 -6.45454545 19 -9 17 C-11.11569184 14.27982477 -11.93911153 12.41752096 -12.4375 9 C-11.8943967 5.27586307 -10.59513183 3.67145924 -8 1 C-5.14675563 -0.42662219 -3.16545451 -0.31033868 0 0 Z " fill="#179BE8" transform="translate(426,345)"/>
<path d="M0 0 C2.02734375 0.6328125 2.02734375 0.6328125 4.08984375 2.1953125 C5.45050265 5.73302565 5.79381151 8.94646758 5.02734375 12.6328125 C2.96484375 15.6328125 2.96484375 15.6328125 0.02734375 17.6328125 C-4.38440795 18.4206253 -6.19458399 18.16256383 -9.91015625 15.6328125 C-12.2015057 12.29994057 -12.73838687 10.53448012 -12.4453125 6.57421875 C-10.79435024 -0.2070064 -6.0025251 -1.09863188 0 0 Z " fill="#0E84DC" transform="translate(604.97265625,416.3671875)"/>
<path d="M0 0 C9.12680033 0.951546 16.68822151 7.66494357 22.375 14.609375 C31.91829048 28.64902349 35.19791701 43.15620788 35.0625 59.9375 C35.05798828 61.00291016 35.05347656 62.06832031 35.04882812 63.16601562 C35.03711787 65.77740291 35.02071724 68.38867124 35 71 C31.00725842 70.27850092 28.00718146 69.14859065 24.4375 67.1875 C23.50808594 66.68605469 22.57867187 66.18460938 21.62109375 65.66796875 C19.02545415 64.0161981 17.07907387 62.25518366 15 60 C16.32 60 17.64 60 19 60 C19.53625 60.556875 20.0725 61.11375 20.625 61.6875 C23.06420725 64.06251758 25.1064857 65.16764161 28.1484375 66.64453125 C29.05513184 67.08772705 29.96182617 67.53092285 30.89599609 67.98754883 C31.93747803 68.48871216 31.93747803 68.48871216 33 69 C32.64254724 64.44544656 32.2696702 59.89250307 31.88305664 55.34033203 C31.75391084 53.79477442 31.62883052 52.24887106 31.50805664 50.70263672 C30.88237859 42.72588527 30.3000424 35.39505301 27 28 C27 27.01 27 26.02 27 25 C26.34 25 25.68 25 25 25 C24.443125 23.80375 23.88625 22.6075 23.3125 21.375 C18.99304518 12.87060625 12.23726375 6.4452909 3.25 2.921875 C1 2 1 2 0 0 Z " fill="#1068CD" transform="translate(420,579)"/>
<path d="M0 0 C0 3 0 3 -1.25 4.359375 C-2.11625 5.04773438 -2.11625 5.04773438 -3 5.75 C-3.96099609 6.53310547 -3.96099609 6.53310547 -4.94140625 7.33203125 C-5.62074219 7.88246094 -6.30007813 8.43289063 -7 9 C-8.31784246 10.13968483 -9.63030648 11.2856166 -10.9375 12.4375 C-12.91421836 14.17564891 -14.89262623 15.90875439 -16.8984375 17.61328125 C-28.22428216 27.29803413 -38.31276732 38.08000778 -46.828125 50.328125 C-48.15986039 52.22806749 -49.54309645 54.08308704 -50.9375 55.9375 C-51.43507813 56.60265625 -51.93265625 57.2678125 -52.4453125 57.953125 C-53.5071221 59.35108538 -54.58614794 60.73609277 -55.6796875 62.109375 C-59.58481948 66.9904225 -59.58481948 66.9904225 -61 73 C-62.485 73.495 -62.485 73.495 -64 74 C-64 70.0898422 -62.34043125 67.68664177 -60.375 64.4375 C-59.78199097 63.45644287 -59.78199097 63.45644287 -59.17700195 62.45556641 C-50.68563584 48.78904603 -40.15675493 36.54204827 -29 25 C-28.36835938 24.32839844 -27.73671875 23.65679687 -27.0859375 22.96484375 C-22.14098022 17.82068203 -16.55548962 13.4606661 -11 9 C-8.93387074 7.3168919 -6.87337827 5.62704885 -4.8125 3.9375 C-3.20833333 2.625 -1.60416667 1.3125 0 0 Z " fill="#159EED" transform="translate(333,263)"/>
<path d="M0 0 C0.99 0 1.98 0 3 0 C3 0.66 3 1.32 3 2 C1.040325 3.7637075 -0.91863468 5.38967324 -3 7 C-3.63010986 7.48839355 -4.26021973 7.97678711 -4.90942383 8.47998047 C-25.95131926 24.50918971 -49.40682022 35.12458016 -75.4375 39.9375 C-76.47511475 40.13061768 -76.47511475 40.13061768 -77.53369141 40.32763672 C-81.28930093 40.94905506 -84.32353395 41.0271437 -88 40 C-85.15250073 38.40591463 -82.93360174 37.7306289 -79.6875 37.5 C-75.59850664 37.12584375 -71.94798173 36.14850378 -68 35 C-66.0369268 34.7783627 -64.07379276 34.55704186 -62.109375 34.34765625 C-58.97920116 33.83175723 -56.09664228 32.75844282 -53.1171875 31.69140625 C-51 31 -51 31 -47.5 30.4375 C-46.2625 30.2209375 -46.2625 30.2209375 -45 30 C-44.67 29.34 -44.34 28.68 -44 28 C-40.7331874 26.45733849 -37.55234558 25.60897353 -34 25 C-34 24.34 -34 23.68 -34 23 C-32.03533587 21.93224776 -30.03144641 20.93446535 -28 20 C-27.34 20.33 -26.68 20.66 -26 21 C-26 20.34 -26 19.68 -26 19 C-23.0173094 17.47551369 -20.181798 16.06059933 -17 15 C-16.67 14.34 -16.34 13.68 -16 13 C-14.34338239 11.98343919 -12.67475144 10.98640021 -11 10 C-9.22728485 8.67570836 -7.47711132 7.32074035 -5.75 5.9375 C-4.87859375 5.24527344 -4.0071875 4.55304687 -3.109375 3.83984375 C-0.92777125 2.17228458 -0.92777125 2.17228458 0 0 Z " fill="#084DBD" transform="translate(722,758)"/>
<path d="M0 0 C3.375 1.0625 3.375 1.0625 5.375 2.6875 C6.83135054 6.14633253 6.28805869 8.47548371 5.375 12.0625 C4.25 14 4.25 14 2.375 15.0625 C-1.55594707 15.56280235 -3.7255787 15.6621142 -7.0625 13.4375 C-9.12291771 10.30566508 -9.3017545 8.74705227 -8.625 5.0625 C-5.92665364 1.21940065 -4.75860157 0.08204485 0 0 Z " fill="#0974D4" transform="translate(599.625,506.9375)"/>
<path d="M0 0 C0.66 0 1.32 0 2 0 C1.79503906 0.74765625 1.59007812 1.4953125 1.37890625 2.265625 C1.10949219 3.25046875 0.84007812 4.2353125 0.5625 5.25 C0.29566406 6.22453125 0.02882813 7.1990625 -0.24609375 8.203125 C-0.49488281 9.12609375 -0.74367188 10.0490625 -1 11 C-1.29003906 11.97259766 -1.29003906 11.97259766 -1.5859375 12.96484375 C-3.03864532 20.10503972 -2.73526079 28.23382857 0 35 C0.96873032 36.35622245 1.96434215 37.69417053 3 39 C3.36548445 40.32488113 3.6937566 41.66018514 4 43 C6.53324698 50.31826905 10.67015838 56.0626376 17.4375 60 C18.7059375 60.495 18.7059375 60.495 20 61 C20 61.66 20 62.32 20 63 C20.5775 63.226875 21.155 63.45375 21.75 63.6875 C24.78738074 65.45930543 26.18872454 66.95964477 28 70 C28.68490446 74.2147967 28.90096396 77.65661895 26.47265625 81.27734375 C25.98667969 81.84582031 25.50070312 82.41429687 25 83 C25.11601563 82.0821875 25.23203125 81.164375 25.3515625 80.21875 C26.05231316 72.90861105 26.05231316 72.90861105 23.0546875 66.53515625 C20.45097171 64.52464177 17.78685555 62.74627 15 61 C2.94944759 51.96743674 -3.27219711 38.89715705 -5.41015625 24.17578125 C-5.71707725 15.88891432 -3.1740423 7.57630096 0 0 Z " fill="#1067CE" transform="translate(732,565)"/>
<path d="M0 0 C2.5 1.5625 2.5 1.5625 4 4 C4 7.81153499 3.80074051 10.05097421 1.3125 13 C-1.87167993 14.37694267 -3.70924801 13.980224 -7 13 C-8.875 11.875 -8.875 11.875 -10 10 C-10.36528977 6.5906288 -10.6140629 4.11976176 -8.9375 1.0625 C-5.8347167 -0.63902633 -3.46230815 -0.42519574 0 0 Z " fill="#128BE0" transform="translate(348,454)"/>
<path d="M0 0 C0.495 0.99 0.495 0.99 1 2 C0.12694101 4.44822835 -0.81151498 6.75965784 -1.875 9.125 C-2.19235107 9.83640137 -2.50970215 10.54780273 -2.83666992 11.28076172 C-12.11243181 31.64219026 -24.91900513 50.37628461 -41 66 C-41.66 65.67 -42.32 65.34 -43 65 C-39.99270152 60.94014706 -37.0417429 56.99213609 -33.375 53.5 C-31.02514013 51.02646329 -30.01171139 49.21908168 -29 46 C-28.01 46 -27.02 46 -26 46 C-25.6596875 44.9171875 -25.6596875 44.9171875 -25.3125 43.8125 C-24 41 -24 41 -21.6484375 38.77734375 C-18.65217962 35.63525031 -17.09087598 32.6551354 -15.3125 28.75 C-12.24753127 22.12376564 -12.24753127 22.12376564 -10 21 C-9.28293018 19.01751285 -8.61709587 17.01584651 -8 15 C-7.67 14.34 -7.34 13.68 -7 13 C-6.34 13 -5.68 13 -5 13 C-4.9175 11.783125 -4.835 10.56625 -4.75 9.3125 C-4.26241628 5.21534129 -2.90489464 2.99860092 0 0 Z " fill="#0852C1" transform="translate(769,691)"/>
<path d="M0 0 C0.495 0.99 0.495 0.99 1 2 C-0.93807306 6.05050564 -3.43992305 8.49401455 -6.9375 11.25 C-7.79214844 11.93578125 -8.64679687 12.6215625 -9.52734375 13.328125 C-11.84806561 14.89727027 -13.30584931 15.48254308 -16 16 C-16.99 16.495 -17.98 16.99 -19 17.5 C-24.29401975 20.14700988 -29.36088908 20.34900595 -35.1875 20.6875 C-36.00025391 20.74744141 -36.81300781 20.80738281 -37.65039062 20.86914062 C-44.2949914 21.25502436 -51.2536204 21.27748552 -56.5625 16.875 C-57.036875 16.25625 -57.51125 15.6375 -58 15 C-56.7625 15.33 -55.525 15.66 -54.25 16 C-38.97866463 19.03245088 -23.70949633 18.11834659 -10.40625 9.76171875 C-6.51775219 6.91478285 -3.23387143 3.5590652 0 0 Z " fill="#065DC9" transform="translate(567,585)"/>
<path d="M0 0 C8.21725449 3.64606656 13.69914531 11.94437336 19.01953125 18.875 C19.67308594 19.57625 20.32664062 20.2775 21 21 C21.99 21 22.98 21 24 21 C24.061875 21.721875 24.12375 22.44375 24.1875 23.1875 C25.2646889 26.91623081 27.08540151 28.49208967 30 31 C30.66 31.309375 31.32 31.61875 32 31.9375 C35.07303433 33.57004949 36.79129749 36.34955699 39 39 C41.08334635 40.2516467 41.08334635 40.2516467 43 41 C43.66 41.66 44.32 42.32 45 43 C45.86625 43.495 46.7325 43.99 47.625 44.5 C48.40875 44.995 49.1925 45.49 50 46 C50 46.66 50 47.32 50 48 C51.32 48.33 52.64 48.66 54 49 C54 49.66 54 50.32 54 51 C36.11844786 44.71554146 19.68194878 24.65336552 8.671875 10.078125 C6.41214475 7.26930142 3.89674027 4.79206988 1.28515625 2.3125 C0 1 0 1 0 0 Z " fill="#0D66CC" transform="translate(380,587)"/>
<path d="M0 0 C0.67546875 0.11641846 1.3509375 0.23283691 2.046875 0.3527832 C6.32734264 1.2512265 8.57293302 2.55161823 11.375 5.875 C12.69058703 6.89823436 14.01877755 7.90626968 15.375 8.875 C15.045 9.535 14.715 10.195 14.375 10.875 C13.818125 10.46507812 13.26125 10.05515625 12.6875 9.6328125 C2.18509009 2.21725955 -8.95828737 1.4282811 -21.49609375 3.3046875 C-30.6846102 5.68635096 -38.63010423 11.63630918 -45.625 17.875 C-45.295 15.895 -44.965 13.915 -44.625 11.875 C-43.820625 11.75125 -43.01625 11.6275 -42.1875 11.5 C-41.341875 11.29375 -40.49625 11.0875 -39.625 10.875 C-39.295 10.215 -38.965 9.555 -38.625 8.875 C-26.19922305 1.3726441 -14.58987905 -2.5150962 0 0 Z " fill="#13A0EF" transform="translate(439.625,254.125)"/>
<path d="M0 0 C-2.46458117 1.23229058 -4.6409225 1.18341073 -7.35717773 1.28979492 C-20.34965935 1.80641519 -31.14099203 4.40543249 -40.3125 14.3125 C-43.39509865 18.14213509 -45.2419681 22.43945841 -47 27 C-47.66 26.67 -48.32 26.34 -49 26 C-49 25.34 -49 24.68 -49 24 C-48.34 24 -47.68 24 -47 24 C-46.938125 23.34 -46.87625 22.68 -46.8125 22 C-45.69621505 17.8783325 -43.66238434 14.34249498 -41 11 C-40.34 11 -39.68 11 -39 11 C-38.67 10.01 -38.34 9.02 -38 8 C-33.66666667 5 -33.66666667 5 -31 5 C-31 4.34 -31 3.68 -31 3 C-21.80228308 -0.74721801 -9.32750442 -5.27024914 0 0 Z " fill="#119EED" transform="translate(523,250)"/>
<path d="M0 0 C1.30710937 -0.01417969 2.61421875 -0.02835937 3.9609375 -0.04296875 C7.36298963 0.1710196 9.59183747 0.70605189 12.625 2.1875 C11.965 2.8475 11.305 3.5075 10.625 4.1875 C9.67625 3.836875 8.7275 3.48625 7.75 3.125 C4.75439828 1.83723223 4.75439828 1.83723223 2.625 3.1875 C1.8 2.98125 0.975 2.775 0.125 2.5625 C-5.76705226 1.93120869 -10.89027173 3.46323685 -15.76171875 6.84375 C-19.98186506 10.36318935 -19.98186506 10.36318935 -22.375 15.1875 C-23.035 15.1875 -23.695 15.1875 -24.375 15.1875 C-25.365 18.1575 -26.355 21.1275 -27.375 24.1875 C-28.035 23.8575 -28.695 23.5275 -29.375 23.1875 C-27.50379267 14.94249268 -23.38019065 8.42039005 -16.1796875 3.76953125 C-10.59860675 0.91720769 -6.21168639 0.03050927 0 0 Z " fill="#149FEE" transform="translate(429.375,272.8125)"/>
<path d="M0 0 C0.66 0.33 1.32 0.66 2 1 C1.0925 1.639375 0.185 2.27875 -0.75 2.9375 C-5.24896675 6.72217582 -7.41083247 11.51309014 -8.3828125 17.265625 C-8.68556826 23.0381682 -7.36142731 28.26224025 -4 33 C-2.45090675 34.11182768 -0.86452231 35.17302063 0.75 36.1875 C4.01314959 38.46635528 4.88079471 39.35568786 5.6171875 43.3359375 C5.62907789 49.00765588 5.00158343 54.42338718 4 60 C1.32072659 55.98108988 1.84398752 53.75838077 2 49 C2.66 49 3.32 49 4 49 C4 45.94246355 3.97334061 43.84753902 3 41 C1.15627133 39.25104243 -0.8185444 37.95364623 -2.921875 36.53125 C-6.47234533 33.91511397 -8.56483497 31.17983549 -10 27 C-10.93491622 19.9178028 -11.0401206 12.8953456 -7.2890625 6.62109375 C-5.15344744 3.93539603 -2.77264639 2.0164701 0 0 Z " fill="#0964CD" transform="translate(586,495)"/>
<path d="M0 0 C2.10488313 4.20976626 -0.53768581 10.26404794 -1.5 14.6875 C-1.76901123 15.9357959 -2.03802246 17.1840918 -2.31518555 18.47021484 C-8.35469579 45.70939157 -8.35469579 45.70939157 -13 55 C-13.66 54.67 -14.32 54.34 -15 54 C-14.52452961 51.86038323 -13.95876252 49.90011365 -13.12109375 47.87109375 C-11.69425951 44.21700606 -10.5531834 40.5091346 -9.4375 36.75 C-9.2120752 35.99074219 -8.98665039 35.23148438 -8.75439453 34.44921875 C-7.45334052 29.93760841 -6.55427805 25.66355958 -6.23828125 20.96875 C-5.86891143 17.91690755 -4.80132315 15.16171487 -3.76171875 12.28125 C-2.71739861 9.15364506 -2.06918089 5.98112448 -1.4296875 2.75 C-1 1 -1 1 0 0 Z " fill="#0757C5" transform="translate(784,635)"/>
<path d="M0 0 C0.66 0 1.32 0 2 0 C0.08094799 6.3387721 -2.33684026 12.15142065 -5.4375 18 C-5.86708008 18.81307617 -6.29666016 19.62615234 -6.73925781 20.46386719 C-12.90864991 31.84571209 -20.44335168 42.29945498 -29 52 C-29 48.24277693 -27.97938773 47.41178964 -25.625 44.5625 C-23.35490924 41.80195753 -21.47244563 39.2646648 -20 36 C-19.34 36 -18.68 36 -18 36 C-17.731875 35.29875 -17.46375 34.5975 -17.1875 33.875 C-15.9318551 30.8350176 -14.49764877 27.9272226 -13 25 C-12.34 25 -11.68 25 -11 25 C-10.01 22.03 -9.02 19.06 -8 16 C-7.34 16 -6.68 16 -6 16 C-5.81824219 15.43152344 -5.63648438 14.86304688 -5.44921875 14.27734375 C-3.85915366 9.39298997 -2.09540222 4.68970973 0 0 Z " fill="#0A60CB" transform="translate(694,524)"/>
<path d="M0 0 C0 0.99 0 1.98 0 3 C-7.06336659 8.13341327 -19.1734342 13.23781901 -28.0625 12.875 C-32.60233678 13.06818454 -35.47962881 15.47962881 -38.625 18.625 C-40.2960798 20.2960798 -41.78918759 21.17094535 -44 22 C-44.99 21.67 -45.98 21.34 -47 21 C-46.38511719 20.61328125 -45.77023437 20.2265625 -45.13671875 19.828125 C-44.32847656 19.30734375 -43.52023437 18.7865625 -42.6875 18.25 C-41.88699219 17.73953125 -41.08648438 17.2290625 -40.26171875 16.703125 C-37.91902691 15.14874549 -37.91902691 15.14874549 -36.66796875 12.88671875 C-34.17142663 10.06276127 -31.18592126 10.03027291 -27.625 9.5625 C-17.69242941 7.99099076 -8.94955178 4.56772376 0 0 Z " fill="#0B63CC" transform="translate(637,556)"/>
<path d="M0 0 C0.66 0.33 1.32 0.66 2 1 C5.68464242 13.21128288 3.40326246 27.72208583 -2.375 38.75 C-4.59461797 42.52536228 -6.98423397 45.82121959 -10 49 C-10.66 49 -11.32 49 -12 49 C-11.8125 46.625 -11.8125 46.625 -11 44 C-9.33927151 43.31867549 -7.672233 42.65257873 -6 42 C-4.8978342 39.7152394 -4.8978342 39.7152394 -4 37 C-3.65839844 36.12601563 -3.31679688 35.25203125 -2.96484375 34.3515625 C1.35875148 22.87677364 1.82152128 12.06757846 0 0 Z " fill="#085FCB" transform="translate(819,572)"/>
<path d="M0 0 C1.0625 1.8125 1.0625 1.8125 2 4 C0.60412328 8.18763017 -1.08164127 9.04082064 -5 11 C-9.20333137 11.19515467 -12.92873439 10.38968381 -16.8671875 8.95703125 C-20.28419776 7.91318148 -23.06113676 7.76659544 -26.625 7.8125 C-27.73101562 7.81894531 -28.83703125 7.82539063 -29.9765625 7.83203125 C-32.49557022 7.97197612 -34.60014013 8.26833541 -37 9 C-37 8.01 -37 7.02 -37 6 C-28.85074346 4.28436704 -21.39546603 4.77982346 -13.328125 6.54296875 C-7.48694297 7.69292648 -7.48694297 7.69292648 -2.125 5.75 C-0.89493337 3.83656302 -0.38497994 2.23288365 0 0 Z " fill="#189EED" transform="translate(399,298)"/>
<path d="M0 0 C3.00617269 3.00617269 2.59585316 5.82381598 3 10 C3.66 10 4.32 10 5 10 C5.37125 11.010625 5.7425 12.02125 6.125 13.0625 C8.73662045 19.13574945 12.97125154 24.14427704 19 27 C21.19130534 27.69579454 21.19130534 27.69579454 23 28 C23 28.66 23 29.32 23 30 C23.62648438 30.04898438 24.25296875 30.09796875 24.8984375 30.1484375 C25.71570313 30.22320313 26.53296875 30.29796875 27.375 30.375 C28.18710937 30.44460938 28.99921875 30.51421875 29.8359375 30.5859375 C32 31 32 31 34 33 C25.59782912 33.71507837 18.55633242 30.13104276 12 25 C4.46464747 17.59684664 0.49111649 10.60811626 0 0 Z " fill="#0B64CC" transform="translate(493,554)"/>
<path d="M0 0 C0.66 0 1.32 0 2 0 C2.3403125 0.95519531 2.680625 1.91039062 3.03125 2.89453125 C8.93170597 18.86681263 17.59966342 30.26418278 33 38 C32.505 38.99 32.505 38.99 32 40 C26.28140143 37.76987115 22.12477361 35.69765883 18 31 C17.21625 30.278125 16.4325 29.55625 15.625 28.8125 C9.63278159 22.39226599 2 13.21372706 2 4 C1.34 4 0.68 4 0 4 C0 2.68 0 1.36 0 0 Z " fill="#0964CD" transform="translate(475,561)"/>
<path d="M0 0 C-0.66 0.66 -1.32 1.32 -2 2 C-4.00401011 1.69169075 -6.00291344 1.35036606 -8 1 C-15.24876363 0.39132519 -20.95348568 0.69872959 -27 5 C-28.70328319 6.6292274 -30.38161281 8.28641357 -32 10 C-32.66 10 -33.32 10 -34 10 C-31.49037109 4.34415338 -27.30467159 0.93894028 -21.625 -1.375 C-14.02323095 -2.68564984 -7.42628858 -1.96629863 0 0 Z " fill="#1EA2ED" transform="translate(527,269)"/>
<path d="M0 0 C-0.33 0.99 -0.66 1.98 -1 3 C-1.66 3 -2.32 3 -3 3 C-3.33 3.66 -3.66 4.32 -4 5 C-5.64150986 5.20518873 -7.28321756 5.40889419 -8.92578125 5.60546875 C-16.13176114 6.97609769 -22.97484375 11.47524144 -29.3984375 14.828125 C-32 16 -32 16 -35 16 C-35 15.34 -35 14.68 -35 14 C-26.47496373 9.84298974 -17.9522118 5.82339087 -9.0625 2.5 C-8.04349609 2.11787354 -8.04349609 2.11787354 -7.00390625 1.72802734 C-2.27635282 0 -2.27635282 0 0 0 Z " fill="#16A3F1" transform="translate(398,231)"/>
<path d="M0 0 C10.87389356 0.3565211 19.14283605 5.44677753 26.98828125 12.78515625 C31.56026259 17.81877454 34.94284226 23.23659312 36 30 C34.03993648 27.5499206 32.47511705 25.06983419 31 22.3125 C29.33940009 18.75275243 29.33940009 18.75275243 26 18 C25.6596875 16.9171875 25.6596875 16.9171875 25.3125 15.8125 C22.08031875 8.88639733 13.83977102 5.54048638 7 3 C4.6761425 2.24816375 2.36831921 1.60467725 0 1 C0 0.67 0 0.34 0 0 Z " fill="#0B6CD2" transform="translate(783,541)"/>
<path d="M0 0 C5.83737277 -0.39472482 9.69107963 0.76726843 14.9375 3.25 C15.98973755 3.73315674 15.98973755 3.73315674 17.06323242 4.22607422 C18.43716161 4.85994974 19.80847272 5.49953916 21.17675781 6.14550781 C22.67672132 6.84849017 24.19199698 7.51870762 25.7109375 8.1796875 C30.0218595 10.11880111 31.86341727 11.82857657 34 16 C35.62836738 17.7041054 37.28769752 19.38025441 39 21 C38.67 21.66 38.34 22.32 38 23 C37.50113281 22.443125 37.00226563 21.88625 36.48828125 21.3125 C25.95759264 10.12009846 14.51616045 4.87594528 0 1 C0 0.67 0 0.34 0 0 Z " fill="#0A68CF" transform="translate(415,560)"/>
<path d="M0 0 C4.22915217 -0.02908633 8.45827852 -0.04682792 12.6875 -0.0625 C13.88568359 -0.07087891 15.08386719 -0.07925781 16.31835938 -0.08789062 C18.05375977 -0.09272461 18.05375977 -0.09272461 19.82421875 -0.09765625 C20.88729248 -0.10289307 21.95036621 -0.10812988 23.0456543 -0.11352539 C25.8134509 -0.00716844 28.30792897 0.37105212 31 1 C28.1103799 2.64301357 26.05128302 3.24928966 22.734375 3.23046875 C21.92613281 3.22853516 21.11789062 3.22660156 20.28515625 3.22460938 C19.44855469 3.21236328 18.61195313 3.20011719 17.75 3.1875 C16.92886719 3.18685547 16.10773437 3.18621094 15.26171875 3.18554688 C10.09491247 3.1486996 5.11375073 2.73642724 0 2 C0 1.34 0 0.68 0 0 Z " fill="#175DC3" transform="translate(604,797)"/>
<path d="M0 0 C-1 2 -2 4 -3 6 C-3.66 6 -4.32 6 -5 6 C-5 6.66 -5 7.32 -5 8 C-5.5775 8.53625 -6.155 9.0725 -6.75 9.625 C-9.69815481 12.73694119 -11.2084954 16.14600691 -13 20 C-13.34804688 20.680625 -13.69609375 21.36125 -14.0546875 22.0625 C-15.11748595 24.13281052 -15.11748595 24.13281052 -16 27 C-16.66 26.67 -17.32 26.34 -18 26 C-16.48174979 18.70923596 -9.13753266 0 0 0 Z " fill="#149CEB" transform="translate(346,312)"/>
<path d="M0 0 C0.33 0.66 0.66 1.32 1 2 C-1 5 -1 5 -2.87597656 5.40063477 C-3.62331055 5.41408936 -4.37064453 5.42754395 -5.140625 5.44140625 C-6.37619141 5.48104492 -6.37619141 5.48104492 -7.63671875 5.52148438 C-8.49910156 5.53501953 -9.36148437 5.54855469 -10.25 5.5625 C-15.87988759 5.67818262 -20.69926902 5.84333004 -26 8 C-26.66 7.34 -27.32 6.68 -28 6 C-19.56021866 2.65319016 -12.11007944 1.49388448 -3 2 C-2.34 2.33 -1.68 2.66 -1 3 C-0.67 2.01 -0.34 1.02 0 0 Z " fill="#26A0EA" transform="translate(401,342)"/>
<path d="M0 0 C0 0.66 0 1.32 0 2 C-4.34734803 4.03781939 -8.27833371 4.46690864 -13 5 C-13.99 5.33 -14.98 5.66 -16 6 C-18.01736993 6.53409108 -20.03866212 7.05346666 -22.0625 7.5625 C-23.12597656 7.83191406 -24.18945312 8.10132813 -25.28515625 8.37890625 C-28 9 -28 9 -30 9 C-30 8.34 -30 7.68 -30 7 C-6.96946565 0 -6.96946565 0 0 0 Z " fill="#1BA6F1" transform="translate(429,223)"/>
<path d="M0 0 C8.58 0 17.16 0 26 0 C24 2 24 2 21.84521484 2.22705078 C20.97590332 2.21657715 20.1065918 2.20610352 19.2109375 2.1953125 C18.26992188 2.18886719 17.32890625 2.18242188 16.359375 2.17578125 C15.37453125 2.15902344 14.3896875 2.14226563 13.375 2.125 C12.38242187 2.11597656 11.38984375 2.10695313 10.3671875 2.09765625 C7.91135612 2.07404249 5.45564826 2.0381707 3 2 C3 5.63 3 9.26 3 13 C2.34 13 1.68 13 1 13 C0.67 8.71 0.34 4.42 0 0 Z " fill="#0770D2" transform="translate(492,520)"/>
<path d="M0 0 C2.21739014 3.32608522 3.37896526 6.70069803 4.6875 10.4375 C7.06648616 17.07270593 9.96200836 22.79642067 13.77734375 28.7421875 C14.18082031 29.48726562 14.58429687 30.23234375 15 31 C14.67 31.66 14.34 32.32 14 33 C13.34 31.68 12.68 30.36 12 29 C11.34 29 10.68 29 10 29 C8.82333996 26.75474054 7.6585926 24.50455858 6.5 22.25 C6.16613281 21.61578125 5.83226562 20.9815625 5.48828125 20.328125 C3.72824467 16.87989007 3 14.95159931 3 11 C2.34 11 1.68 11 1 11 C-0.62950412 6.87831311 -1.26264601 4.29299643 0 0 Z " fill="#0A55C2" transform="translate(505,692)"/>
<path d="M0 0 C3.64226572 1.61782349 6.54983839 3.87209653 9.6875 6.3125 C19.76401456 14.32265515 19.76401456 14.32265515 32 16 C32 16.99 32 17.98 32 19 C32.66 19.66 33.32 20.32 34 21 C29.05339237 20.45458538 25.13790133 18.85191946 20.8125 16.5 C20.16192627 16.14977783 19.51135254 15.79955566 18.84106445 15.4387207 C11.77827126 11.50993907 4.53206492 6.79809738 0 0 Z " fill="#0B70D4" transform="translate(273,544)"/>
<path d="M0 0 C0.66 0.66 1.32 1.32 2 2 C1.01 4.31 0.02 6.62 -1 9 C-8.92 9 -16.84 9 -25 9 C-25.33 8.34 -25.66 7.68 -26 7 C-22.94071386 5.98023795 -20.33095063 5.65482113 -17.125 5.375 C-15.58199219 5.23191406 -15.58199219 5.23191406 -14.0078125 5.0859375 C-11.12945513 5.00369872 -8.79198035 5.36128006 -6 6 C-3.8064655 6.0146239 -3.8064655 6.0146239 -2 5 C-0.70339566 2.50965614 -0.70339566 2.50965614 0 0 Z " fill="#109DEE" transform="translate(386,279)"/>
<path d="M0 0 C0.33 0 0.66 0 1 0 C1.16435547 1.59328125 1.16435547 1.59328125 1.33203125 3.21875 C2.13681027 10.5431044 2.89785356 17.2316805 6 24 C5.01 24.33 4.02 24.66 3 25 C-1.69696789 9.08482755 -1.69696789 9.08482755 -1 1 C-0.67 0.67 -0.34 0.34 0 0 Z " fill="#085CC6" transform="translate(474,664)"/>
<path d="M0 0 C0.66 0 1.32 0 2 0 C0.85605334 2.29894595 -0.30196012 4.58950305 -1.47265625 6.875 C-1.99730469 7.90625 -2.52195312 8.9375 -3.0625 10 C-3.58972656 11.03125 -4.11695313 12.0625 -4.66015625 13.125 C-6.80049697 17.71768446 -7.20871809 21.69597266 -7.5625 26.75 C-7.64628906 27.92046875 -7.73007812 29.0909375 -7.81640625 30.296875 C-7.87699219 31.18890625 -7.93757813 32.0809375 -8 33 C-8.33 33 -8.66 33 -9 33 C-9.10901505 30.16560863 -9.18777904 27.33549797 -9.25 24.5 C-9.28351563 23.70851563 -9.31703125 22.91703125 -9.3515625 22.1015625 C-9.44982957 16.10727144 -8.12946477 12.08538024 -5 7 C-4.53335937 6.236875 -4.06671875 5.47375 -3.5859375 4.6875 C-2.43898393 3.0891647 -1.22109454 1.5424352 0 0 Z " fill="#044FC2" transform="translate(513,658)"/>
<path d="M0 0 C4.2533277 0.49076858 7.12649714 3.01835456 10 6 C13.65479401 11.27914691 16.6880981 17.53555399 15.671875 24.12890625 C15.125 26.0625 15.125 26.0625 14 29 C13.67 29 13.34 29 13 29 C12.97421875 28.0821875 12.9484375 27.164375 12.921875 26.21875 C12.60371834 15.91551357 12.60371834 15.91551357 8 7 C5.9482661 5.21503074 3.86844487 3.64182348 1.609375 2.12890625 C1.07828125 1.75636719 0.5471875 1.38382812 0 1 C0 0.67 0 0.34 0 0 Z " fill="#0568CF" transform="translate(607,494)"/>
<path d="M0 0 C9.91035799 3.73515386 18.86998073 8.68187964 28 14 C27.67 14.66 27.34 15.32 27 16 C23.82549562 14.90876412 21.1177918 13.49699857 18.3125 11.6875 C9.74718759 6.0251227 9.74718759 6.0251227 0 4 C0 2.68 0 1.36 0 0 Z " fill="#129CED" transform="translate(576,240)"/>
<path d="M0 0 C0.66 0.99 1.32 1.98 2 3 C0.8553125 4.2684375 0.8553125 4.2684375 -0.3125 5.5625 C-2.26246339 7.87601589 -3.56236797 10.00546958 -4.6875 12.8125 C-6 16 -6 16 -8 17 C-8.33 17.99 -8.66 18.98 -9 20 C-10.18284261 16.498728 -10.02089921 16.04804239 -8.41796875 12.36328125 C-7.68702292 11.00618945 -6.94301708 9.6560676 -6.1875 8.3125 C-5.81818359 7.62349609 -5.44886719 6.93449219 -5.06835938 6.22460938 C-2.28492087 1.14246044 -2.28492087 1.14246044 0 0 Z " fill="#1A9DEA" transform="translate(268,338)"/>
<path d="M0 0 C-0.33 0.99 -0.66 1.98 -1 3 C-2.98723268 3.70381157 -4.98777953 4.3711811 -7 5 C-7.33 5.66 -7.66 6.32 -8 7 C-9.65697379 7.69040574 -11.3255761 8.3530635 -13 9 C-13.886875 9.556875 -14.77375 10.11375 -15.6875 10.6875 C-16.450625 11.120625 -17.21375 11.55375 -18 12 C-18.66 11.67 -19.32 11.34 -20 11 C-6.46735395 0 -6.46735395 0 0 0 Z " fill="#1796E8" transform="translate(318,373)"/>
<path d="M0 0 C3.41593036 3.05210346 5.18155613 6.81768779 7.3046875 10.8203125 C8.83469488 13.19564684 8.83469488 13.19564684 11.48828125 13.86328125 C14.69149318 14.0376396 17.04044137 13.17005806 20 12 C19.67 12.99 19.34 13.98 19 15 C16.20412254 16.2426122 13.95195919 17.0279988 10.875 16.9375 C8.06872507 15.53436254 6.82264333 13.54065434 5 11 C4.32517578 10.13568359 4.32517578 10.13568359 3.63671875 9.25390625 C3.17910156 8.65449219 2.72148437 8.05507813 2.25 7.4375 C1.60804688 6.60025391 1.60804688 6.60025391 0.953125 5.74609375 C0 4 0 4 0 0 Z " fill="#1098EB" transform="translate(444,278)"/>
<path d="M0 0 C0.53625 0.13277344 1.0725 0.26554688 1.625 0.40234375 C9.69918795 2.22169202 17.75981434 2.61150489 26 3 C26 3.33 26 3.66 26 4 C22.7 4 19.4 4 16 4 C15.67 4.66 15.34 5.32 15 6 C8.84777564 5.56826496 5.18082051 4.34594658 0 1 C0 0.67 0 0.34 0 0 Z " fill="#1973D0" transform="translate(509,600)"/>
<path d="M0 0 C0 0.66 0 1.32 0 2 C-14.73891626 13 -14.73891626 13 -21 13 C-20.67 12.01 -20.34 11.02 -20 10 C-17.85546875 8.97265625 -17.85546875 8.97265625 -15.1875 8.0625 C-11.22994906 6.59110286 -8.74795753 5.29754904 -6 2 C-3 0 -3 0 0 0 Z " fill="#0F62CB" transform="translate(806,622)"/>
<path d="M0 0 C1.09570312 0.00902344 2.19140625 0.01804687 3.3203125 0.02734375 C4.16335938 0.03894531 5.00640625 0.05054688 5.875 0.0625 C5.545 1.0525 5.215 2.0425 4.875 3.0625 C3.740625 3.02125 2.60625 2.98 1.4375 2.9375 C-3.26883562 2.92066159 -7.58816004 3.88628223 -12.125 5.0625 C-7.88726934 0.68351165 -6.10615699 -0.06495912 0 0 Z " fill="#0364CC" transform="translate(583.125,577.9375)"/>
<path d="M0 0 C3 3.75 3 3.75 3 6 C3.7734375 6.19335938 4.546875 6.38671875 5.34375 6.5859375 C6.3853125 6.84632813 7.426875 7.10671875 8.5 7.375 C9.58796875 7.64699219 10.6759375 7.91898438 11.796875 8.19921875 C14.44791667 8.86197917 17.09895833 9.52473958 19.75 10.1875 C20.8225 10.455625 21.895 10.72375 23 11 C23 11.33 23 11.66 23 12 C14.5847456 12.63246171 8.11488077 11.39477664 1.5 5.9375 C0 4 0 4 -1 1 C-0.67 0.67 -0.34 0.34 0 0 Z " fill="#116ED2" transform="translate(391,548)"/>
<path d="M0 0 C0 0.99 0 1.98 0 3 C-2.94297654 5.71659373 -6.42836004 7.2491961 -10 9 C-12.35051442 10.30531585 -14.67406957 11.65096035 -17 13 C-17 12.01 -17 11.02 -17 10 C-15.43945312 8.74145508 -15.43945312 8.74145508 -13.28125 7.51953125 C-12.51425781 7.07802734 -11.74726563 6.63652344 -10.95703125 6.18164062 C-10.14621094 5.72982422 -9.33539063 5.27800781 -8.5 4.8125 C-7.68917969 4.34908203 -6.87835938 3.88566406 -6.04296875 3.40820312 C-4.03412709 2.26198171 -2.01991195 1.12656228 0 0 Z " fill="#19A4F1" transform="translate(359,247)"/>
<path d="M0 0 C0 3 0 3 -2.25 5.375 C-3.1575 6.24125 -4.065 7.1075 -5 8 C-5.680625 8.86625 -6.36125 9.7325 -7.0625 10.625 C-8.92866674 12.91255923 -10.42799273 14.55324591 -13 16 C-15.125 15.5703125 -15.125 15.5703125 -17 15 C-16.27554688 14.41992188 -15.55109375 13.83984375 -14.8046875 13.2421875 C-9.60374413 9.03982526 -4.60347013 4.85230636 0 0 Z " fill="#045BCA" transform="translate(656,540)"/>
<path d="M0 0 C0.66 0.33 1.32 0.66 2 1 C1.54109375 1.4125 1.0821875 1.825 0.609375 2.25 C-3.85996128 6.45643415 -6.56494026 10.40282478 -9 16 C-9.66012737 17.33658298 -10.32509398 18.67081827 -11 20 C-11.66 19.67 -12.32 19.34 -13 19 C-13 18.34 -13 17.68 -13 17 C-12.34 17 -11.68 17 -11 17 C-10.938125 16.34 -10.87625 15.68 -10.8125 15 C-9.69621505 10.8783325 -7.66238434 7.34249498 -5 4 C-4.34 4 -3.68 4 -3 4 C-2.67 3.01 -2.34 2.02 -2 1 C-1.34 0.67 -0.68 0.34 0 0 Z " fill="#0C9BED" transform="translate(487,257)"/>
<path d="M0 0 C0.578125 1.859375 0.578125 1.859375 1 4 C0.05607981 5.69905634 -0.95650161 7.36021682 -2 9 C-2.47966279 10.3258095 -2.93671102 11.65994403 -3.375 13 C-4.81374001 17.06232473 -6.76203228 19.19959548 -10 22 C-8.4719611 16.90117545 -6.28963144 12.34334341 -3.875 7.625 C-3.50246094 6.88894531 -3.12992188 6.15289063 -2.74609375 5.39453125 C-1.8343878 3.59449642 -0.91770068 1.79698598 0 0 Z " fill="#0651C0" transform="translate(746,684)"/>
<path d="M0 0 C4.88259738 0.48970003 7.71355197 1.81916852 11.625 4.75 C13.00558594 5.76320313 13.00558594 5.76320313 14.4140625 6.796875 C16.99896616 8.99911921 18.97607331 11.28242707 21 14 C20.01 14.495 20.01 14.495 19 15 C18.34 14.29875 17.68 13.5975 17 12.875 C12.2905915 8.1789705 7.27996922 4.28362517 1 2 C0.67 1.34 0.34 0.68 0 0 Z " fill="#156FD2" transform="translate(420,579)"/>
<path d="M0 0 C-1.81589022 2.33382455 -2.74389745 2.95491412 -5.70703125 3.4765625 C-7.24423828 3.55003906 -7.24423828 3.55003906 -8.8125 3.625 C-12.9434541 3.87035364 -16.92964258 4.20854161 -21 5 C-20.67 4.01 -20.34 3.02 -20 2 C-17.60468244 1.66254646 -15.20885732 1.3299171 -12.8125 1 C-12.13896484 0.90460937 -11.46542969 0.80921875 -10.77148438 0.7109375 C-7.15335423 0.21675387 -3.65203599 -0.11346131 0 0 Z " fill="#0D53C0" transform="translate(651,771)"/>
<path d="M0 0 C0.66 0.33 1.32 0.66 2 1 C-3.85224936 5.24076041 -9.90831288 9.22401618 -17 11 C-19.29296875 10.59765625 -19.29296875 10.59765625 -21 10 C-18.55155935 8.39102472 -16.59057523 7.10240614 -13.6796875 6.59765625 C-9.47375659 5.65959877 -6.11342833 3.34536927 -2.42578125 1.1796875 C-1.22501953 0.59574219 -1.22501953 0.59574219 0 0 Z " fill="#0B65CD" transform="translate(631,539)"/>
<path d="M0 0 C0.66 0.33 1.32 0.66 2 1 C1.43410156 1.53367187 0.86820313 2.06734375 0.28515625 2.6171875 C-4.6666872 7.64735536 -6.8889216 11.0013431 -7.0625 18.12890625 C-7.041875 18.74636719 -7.02125 19.36382813 -7 20 C-7.33 20 -7.66 20 -8 20 C-9.22690583 8.66816143 -9.22690583 8.66816143 -6.21875 4.578125 C-4.21865283 2.87381685 -2.2381273 1.37385046 0 0 Z " fill="#0563CC" transform="translate(615,529)"/>
<path d="M0 0 C1.18224668 3.54674003 0.89329634 5.97522995 0.5625 9.6875 C0.40974609 11.45673828 0.40974609 11.45673828 0.25390625 13.26171875 C0.12822266 14.61716797 0.12822266 14.61716797 0 16 C-0.99 15.67 -1.98 15.34 -3 15 C-3.05410687 13.22950311 -3.09284119 11.45853151 -3.125 9.6875 C-3.14820313 8.70136719 -3.17140625 7.71523438 -3.1953125 6.69921875 C-2.97834438 3.70071932 -2.15709879 2.15709879 0 0 Z " fill="#1798E6" transform="translate(290,401)"/>
<path d="M0 0 C0.598125 0.165 1.19625 0.33 1.8125 0.5 C4.11344336 1.1114124 4.11344336 1.1114124 7 1 C7.99 1.66 8.98 2.32 10 3 C10 3.66 10 4.32 10 5 C11.32 5 12.64 5 14 5 C15.75 7 15.75 7 17 9 C16.67 9.66 16.34 10.32 16 11 C15.443125 10.60167969 14.88625 10.20335937 14.3125 9.79296875 C9.33502693 6.33732444 4.75895008 3.8847473 -1 2 C-0.67 1.34 -0.34 0.68 0 0 Z " fill="#149DEC" transform="translate(530,251)"/>
<path d="M0 0 C0 0.66 0 1.32 0 2 C-1.55460937 1.98259766 -1.55460937 1.98259766 -3.140625 1.96484375 C-4.51041486 1.95546163 -5.88020668 1.94636188 -7.25 1.9375 C-7.93191406 1.92912109 -8.61382812 1.92074219 -9.31640625 1.91210938 C-12.69342554 1.89571608 -15.77291639 1.94371232 -19 3 C-19 2.01 -19 1.02 -19 0 C-12.84974502 -1.29479052 -6.02872891 -2.0095763 0 0 Z " fill="#23A5EC" transform="translate(381,304)"/>
<path d="M0 0 C2.52038937 0.18297909 4.8910271 0.46570901 7.375 0.875 C11.2884982 1.48226696 15.02205321 2 19 2 C19 2.99 19 3.98 19 5 C16.4372008 4.68981396 13.8747789 4.37693109 11.3125 4.0625 C10.59126953 3.97548828 9.87003906 3.88847656 9.12695312 3.79882812 C5.37989416 3.33686195 1.69207089 2.80832321 -2 2 C-1.34 1.34 -0.68 0.68 0 0 Z " fill="#1354BE" transform="translate(585,794)"/>
<path d="M0 0 C2.37706418 3.66539668 2.05094317 6.49056835 1.625 10.75 C1.51414062 11.92046875 1.40328125 13.0909375 1.2890625 14.296875 C1.19367188 15.18890625 1.09828125 16.0809375 1 17 C0.01 17 -0.98 17 -2 17 C-2.22084624 10.90218999 -2.01167675 5.78357065 0 0 Z " fill="#1A98E6" transform="translate(270,398)"/>
<path d="M0 0 C0.99 0 1.98 0 3 0 C3 0.66 3 1.32 3 2 C-3.00317109 6.72483403 -8.43030936 8.75581643 -16 9 C-16 8.67 -16 8.34 -16 8 C-12.38026598 6.68373308 -9.90432869 6 -6 6 C-6 5.34 -6 4.68 -6 4 C-4.35 3.67 -2.7 3.34 -1 3 C-0.67 2.01 -0.34 1.02 0 0 Z " fill="#0C64CC" transform="translate(549,578)"/>
<path d="M0 0 C-6 4 -6 4 -11 4 C-11.33 4.99 -11.66 5.98 -12 7 C-15.5625 8.1875 -15.5625 8.1875 -19 9 C-14.2692254 3.50619724 -7.57957423 -0.97800958 0 0 Z " fill="#0E6ED1" transform="translate(765,541)"/>
<path d="M0 0 C0.99 0.33 1.98 0.66 3 1 C4.08993108 3.7248277 4.86392094 6.38764423 5.5 9.25 C5.91501249 11.23877444 5.91501249 11.23877444 8 13 C7.34 14.32 6.68 15.64 6 17 C4.47182713 14.03314185 3.13364127 11.02816356 1.875 7.9375 C1.52179687 7.08027344 1.16859375 6.22304688 0.8046875 5.33984375 C0 3 0 3 0 0 Z " fill="#0F98EA" transform="translate(557,272)"/>
<path d="M0 0 C0.33 0.66 0.66 1.32 1 2 C1.66 2 2.32 2 3 2 C3.309375 3.11375 3.61875 4.2275 3.9375 5.375 C4.82326483 8.7945155 4.82326483 8.7945155 6 11 C5.71758117 13.3400417 5.38749213 15.67504723 5 18 C3.31099986 14.89370844 2.29373333 11.84794949 1.375 8.4375 C1.11460937 7.48746094 0.85421875 6.53742187 0.5859375 5.55859375 C0 3 0 3 0 0 Z " fill="#0765CC" transform="translate(465,602)"/>
<path d="M0 0 C0.66 0.33 1.32 0.66 2 1 C2 2.32 2 3.64 2 5 C1.34 5 0.68 5 0 5 C-0.33 5.99 -0.66 6.98 -1 8 C-2.65 8.33 -4.3 8.66 -6 9 C-6 9.66 -6 10.32 -6 11 C-7.65 11 -9.3 11 -11 11 C-10.443125 10.608125 -9.88625 10.21625 -9.3125 9.8125 C-5.63239982 6.92809715 -2.59511485 3.89267228 0 0 Z " fill="#0463CC" transform="translate(790,593)"/>
<path d="M0 0 C1.125 3.75 1.125 3.75 0 6 C-0.66 6 -1.32 6 -2 6 C-2.226875 6.86625 -2.45375 7.7325 -2.6875 8.625 C-4.24025095 12.61778814 -6.14319895 14.84248305 -9 18 C-9 14.81579155 -8.63765561 14.03619037 -7.03125 11.42578125 C-6.42216797 10.42514648 -6.42216797 10.42514648 -5.80078125 9.40429688 C-5.15689453 8.36885742 -5.15689453 8.36885742 -4.5 7.3125 C-4.07074219 6.61060547 -3.64148438 5.90871094 -3.19921875 5.18554688 C-2.13872072 3.45340009 -1.07012602 1.72621518 0 0 Z " fill="#0865CD" transform="translate(668,521)"/>
<path d="M0 0 C2.10048591 3.40117141 2.14947274 5.75059106 1.75 9.6875 C1.66234375 10.66074219 1.5746875 11.63398438 1.484375 12.63671875 C1.32453125 13.41660156 1.1646875 14.19648438 1 15 C0.01 15.495 0.01 15.495 -1 16 C-1.9213204 9.96023293 -1.9466868 5.8400604 0 0 Z " fill="#1199E9" transform="translate(309,336)"/>
<path d="M0 0 C0.66 0.33 1.32 0.66 2 1 C2 1.99 2 2.98 2 4 C0.34928604 5.02611949 -1.31970006 6.02308143 -3 7 C-4.78344178 9.06954847 -4.78344178 9.06954847 -6 11 C-6.99 10.67 -7.98 10.34 -9 10 C-8.06409496 8.8944811 -7.12620142 7.79064547 -6.1875 6.6875 C-5.66542969 6.07261719 -5.14335938 5.45773437 -4.60546875 4.82421875 C-3.12827531 3.14575321 -1.59960869 1.56117966 0 0 Z " fill="#135CC6" transform="translate(717,730)"/>
<path d="M0 0 C3 1 3 1 4.6875 3.9375 C6 7 6 7 6 9 C6.66 9 7.32 9 8 9 C8.28875 9.94875 8.5775 10.8975 8.875 11.875 C9.76825109 15.05211578 9.76825109 15.05211578 12 17 C10.23046875 16.8984375 10.23046875 16.8984375 8 16 C6.11328125 13.1640625 6.11328125 13.1640625 4.3125 9.625 C3.71050781 8.46226562 3.10851562 7.29953125 2.48828125 6.1015625 C1 3 1 3 0 0 Z " fill="#0865CC" transform="translate(455,584)"/>
<path d="M0 0 C1.64548828 0.41572266 1.64548828 0.41572266 3.32421875 0.83984375 C4.77862993 1.20579237 6.2330579 1.57167427 7.6875 1.9375 C8.40873047 2.11990234 9.12996094 2.30230469 9.87304688 2.49023438 C13.56827248 3.41825907 17.25345469 4.29798461 21 5 C21 5.33 21 5.66 21 6 C6.74556213 6.5183432 6.74556213 6.5183432 1.734375 1.921875 C1.16203125 1.28765625 0.5896875 0.6534375 0 0 Z " fill="#0767CE" transform="translate(388,571)"/>
<path d="M0 0 C1.6852084 4.07679159 0.16939007 6.83075593 -1.4375 10.75 C-1.91058594 11.92046875 -2.38367188 13.0909375 -2.87109375 14.296875 C-3.24363281 15.18890625 -3.61617187 16.0809375 -4 17 C-4.5534764 14.92446352 -5 13.15634036 -5 11 C-4.34 11 -3.68 11 -3 11 C-3 9.02 -3 7.04 -3 5 C-2.34 5 -1.68 5 -1 5 C-0.67 3.35 -0.34 1.7 0 0 Z " fill="#0C69CE" transform="translate(701,506)"/>
<path d="M0 0 C0.66 0.99 1.32 1.98 2 3 C-0.85276137 5.93200474 -3.65079784 8.64315404 -7 11 C-7.66 10.67 -8.32 10.34 -9 10 C-9 9.34 -9 8.68 -9 8 C-7.6078125 7.4121875 -7.6078125 7.4121875 -6.1875 6.8125 C-2.77449882 4.87177384 -1.68801596 3.46981059 0 0 Z " fill="#1396E8" transform="translate(328,364)"/>
<path d="M0 0 C0.66 0.33 1.32 0.66 2 1 C0.88266271 2.50571657 -0.24410035 4.00444292 -1.375 5.5 C-2.00148438 6.3353125 -2.62796875 7.170625 -3.2734375 8.03125 C-3.84320312 8.6809375 -4.41296875 9.330625 -5 10 C-5.66 10 -6.32 10 -7 10 C-6.8125 7.625 -6.8125 7.625 -6 5 C-3.5 3.875 -3.5 3.875 -1 3 C-0.67 2.01 -0.34 1.02 0 0 Z " fill="#1069CE" transform="translate(814,611)"/>
<path d="M0 0 C3 3 3 3 3.3984375 5.12109375 C3.39070312 5.88550781 3.38296875 6.64992188 3.375 7.4375 C3.38273438 8.19933594 3.39046875 8.96117187 3.3984375 9.74609375 C3 12 3 12 0 16 C0 10.72 0 5.44 0 0 Z " fill="#065AC6" transform="translate(757,632)"/>
<path d="M0 0 C0.99 0.33 1.98 0.66 3 1 C1.35 4.3 -0.3 7.6 -2 11 C-2.66 9.68 -3.32 8.36 -4 7 C-3.06434658 4.35435928 -1.54985485 2.37036624 0 0 Z " fill="#1695E6" transform="translate(294,389)"/>
<path d="M0 0 C3.68069887 1.53643852 5.98775204 3.78150945 8.75 6.625 C9.54921875 7.44226563 10.3484375 8.25953125 11.171875 9.1015625 C12.07679688 10.04128906 12.07679688 10.04128906 13 11 C8.89253434 11 7.80245139 9.36039564 4.8125 6.625 C3.91144531 5.81289063 3.01039063 5.00078125 2.08203125 4.1640625 C0 2 0 2 0 0 Z " fill="#0C8FE6" transform="translate(608,301)"/>
<path d="M0 0 C1.19109375 -0.03867187 1.19109375 -0.03867187 2.40625 -0.078125 C3.0971875 0.03015625 3.788125 0.1384375 4.5 0.25 C5.16 1.24 5.82 2.23 6.5 3.25 C4.70866022 3.30391993 2.91686101 3.34275571 1.125 3.375 C0.12726562 3.39820313 -0.87046875 3.42140625 -1.8984375 3.4453125 C-4.5 3.25 -4.5 3.25 -6.5 1.25 C-4.15897141 0.07948571 -2.60647047 0.0507754 0 0 Z " fill="#378FD9" transform="translate(578.5,559.75)"/>
<path d="M0 0 C0.33 0 0.66 0 1 0 C1 3.96 1 7.92 1 12 C0.01 12.495 0.01 12.495 -1 13 C-2.07310858 9.72814447 -1.89263102 7.57052408 -1.0625 4.25 C-0.86785156 3.45078125 -0.67320312 2.6515625 -0.47265625 1.828125 C-0.31667969 1.22484375 -0.16070312 0.6215625 0 0 Z " fill="#0C94E8" transform="translate(447,351)"/>
<path d="M0 0 C0.99 0.33 1.98 0.66 3 1 C2.51789063 1.32613281 2.03578125 1.65226562 1.5390625 1.98828125 C0.90742188 2.42527344 0.27578125 2.86226563 -0.375 3.3125 C-1.31472656 3.95638672 -1.31472656 3.95638672 -2.2734375 4.61328125 C-4.26378845 6.06920339 -4.26378845 6.06920339 -6 9 C-6.66 9 -7.32 9 -8 9 C-6.40758592 4.70048197 -3.64459275 2.60328053 0 0 Z " fill="#0F98EC" transform="translate(501,270)"/>
<path d="M0 0 C-2 2 -2 2 -4.8203125 2.1953125 C-5.91085937 2.17210937 -7.00140625 2.14890625 -8.125 2.125 C-9.22070312 2.10695312 -10.31640625 2.08890625 -11.4453125 2.0703125 C-12.28835938 2.04710937 -13.13140625 2.02390625 -14 2 C-14 1.67 -14 1.34 -14 1 C-8.83430559 -0.79217969 -5.48946087 -1.12029814 0 0 Z " fill="#3CB1F0" transform="translate(523,249)"/>
<path d="M0 0 C0.598125 0.61875 1.19625 1.2375 1.8125 1.875 C4.00811144 4.13676954 4.00811144 4.13676954 7 6 C5 8 5 8 2.375 8.125 C1.59125 8.08375 0.8075 8.0425 0 8 C0 5.36 0 2.72 0 0 Z " fill="#227FD6" transform="translate(606,543)"/>
<path d="M0 0 C0.99 0.33 1.98 0.66 3 1 C2.67 4.3 2.34 7.6 2 11 C-0.67927341 6.98108988 -0.15601248 4.75838077 0 0 Z " fill="#096BCF" transform="translate(588,544)"/>
<path d="M0 0 C7.57142857 4.14285714 7.57142857 4.14285714 10 7 C8.68 7.33 7.36 7.66 6 8 C5.7525 7.38125 5.505 6.7625 5.25 6.125 C3.79371361 3.64931313 2.62187494 3.04874998 0 2 C0 1.34 0 0.68 0 0 Z " fill="#179BEB" transform="translate(612,260)"/>
<path d="M0 0 C0.99 0.33 1.98 0.66 3 1 C2.07347299 2.17539996 1.13336613 3.34010577 0.1875 4.5 C-0.33457031 5.1496875 -0.85664062 5.799375 -1.39453125 6.46875 C-3 8 -3 8 -6 8 C-4 5.33333333 -2 2.66666667 0 0 Z " fill="#1357C1" transform="translate(732,748)"/>
<path d="M0 0 C0.33 0 0.66 0 1 0 C1.4375 2.125 1.4375 2.125 1 5 C-1.12689146 7.276147 -3.5023433 9.1458722 -6 11 C-4.55007731 6.89188572 -2.54592427 3.53144334 0 0 Z " fill="#0A76D8" transform="translate(622,433)"/>
<path d="M0 0 C-1 3 -1 3 -2.84765625 3.94921875 C-3.57855469 4.19285156 -4.30945313 4.43648438 -5.0625 4.6875 C-6.16271484 5.06455078 -6.16271484 5.06455078 -7.28515625 5.44921875 C-7.85105469 5.63097656 -8.41695313 5.81273437 -9 6 C-8.68359375 4.078125 -8.68359375 4.078125 -8 2 C-5.25822503 0.83328724 -2.99432393 0 0 0 Z " fill="#1399EA" transform="translate(418,330)"/>
<path d="M0 0 C3.3 0.33 6.6 0.66 10 1 C6 4 6 4 2.75 3.6875 C1.8425 3.460625 0.935 3.23375 0 3 C0 2.01 0 1.02 0 0 Z " fill="#0953C1" transform="translate(597,772)"/>
<path d="M0 0 C0.66 0 1.32 0 2 0 C0.18690997 3.77727089 -1.9073259 7.37269822 -4 11 C-4.66 10.67 -5.32 10.34 -6 10 C-4.34643078 6.41726669 -2.32019297 3.19026533 0 0 Z " fill="#125FC8" transform="translate(513,658)"/>
<path d="M0 0 C0.33 0.66 0.66 1.32 1 2 C-0.25 4.5625 -0.25 4.5625 -2 7 C-2.99 7.33 -3.98 7.66 -5 8 C-5 5 -5 5 -2.5 2.3125 C-1.675 1.549375 -0.85 0.78625 0 0 Z " fill="#1F74D0" transform="translate(567,585)"/>
<path d="M0 0 C0.99 0 1.98 0 3 0 C1.71480435 2.86697492 0.42870746 4.97607712 -2 7 C-2.66 7 -3.32 7 -4 7 C-4 6.34 -4 5.68 -4 5 C-3.34 5 -2.68 5 -2 5 C-1.7834375 4.0409375 -1.7834375 4.0409375 -1.5625 3.0625 C-1 1 -1 1 0 0 Z " fill="#1B6ECF" transform="translate(652,586)"/>
<path d="M0 0 C0.33 0.99 0.66 1.98 1 3 C-1 5 -1 5 -3.6015625 5.1953125 C-4.59929688 5.17210937 -5.59703125 5.14890625 -6.625 5.125 C-8.12933594 5.09792969 -8.12933594 5.09792969 -9.6640625 5.0703125 C-10.43492187 5.04710937 -11.20578125 5.02390625 -12 5 C-12 4.67 -12 4.34 -12 4 C-10.9275 3.855625 -9.855 3.71125 -8.75 3.5625 C-4.81334935 3.02103843 -4.81334935 3.02103843 -1 2 C-0.67 1.34 -0.34 0.68 0 0 Z " fill="#075DCB" transform="translate(588,557)"/>
<path d="M0 0 C0.99 0.66 1.98 1.32 3 2 C0.75 4.0625 0.75 4.0625 -2 6 C-4.3125 5.75 -4.3125 5.75 -6 5 C-4.02 3.35 -2.04 1.7 0 0 Z " fill="#106BCF" transform="translate(645,550)"/>
<path d="M0 0 C-1.61992165 0.86375896 -3.24611861 1.71575854 -4.875 2.5625 C-6.23238281 3.27599609 -6.23238281 3.27599609 -7.6171875 4.00390625 C-8.40351562 4.33261719 -9.18984375 4.66132812 -10 5 C-10.66 4.67 -11.32 4.34 -12 4 C-8.00742806 -0.42034751 -5.71963172 -1.56098282 0 0 Z " fill="#0660CC" transform="translate(574,563)"/>
<path d="M0 0 C0.66 0.33 1.32 0.66 2 1 C-2.30769231 6.78461538 -2.30769231 6.78461538 -5.8125 7.875 C-6.8953125 7.936875 -6.8953125 7.936875 -8 8 C-5.33333333 5.33333333 -2.66666667 2.66666667 0 0 Z " fill="#066CD1" transform="translate(545,506)"/>
<path d="M0 0 C1 3 1 3 -0.4375 6.1875 C-1.2109375 7.5796875 -1.2109375 7.5796875 -2 9 C-2.66 9 -3.32 9 -4 9 C-3.71848913 7.68528432 -3.42446661 6.37324233 -3.125 5.0625 C-2.96257812 4.33160156 -2.80015625 3.60070312 -2.6328125 2.84765625 C-2 1 -2 1 0 0 Z " fill="#1395E8" transform="translate(251,377)"/>
<path d="M0 0 C2.91488977 2.6234008 4.88503898 5.71816394 7 9 C4.50638429 7.79618552 2.31856917 6.54571278 0 5 C-0.1875 2.375 -0.1875 2.375 0 0 Z " fill="#1493E7" transform="translate(400,363)"/>
<path d="M0 0 C0.66 0 1.32 0 2 0 C2.33 3.3 2.66 6.6 3 10 C2.01 10 1.02 10 0 10 C0 6.7 0 3.4 0 0 Z " fill="#139DEC" transform="translate(464,278)"/>
<path d="M0 0 C1 3 1 3 0.22265625 5.04296875 C-0.16019531 5.75066406 -0.54304688 6.45835937 -0.9375 7.1875 C-1.31777344 7.90292969 -1.69804687 8.61835938 -2.08984375 9.35546875 C-2.54037109 10.16951172 -2.54037109 10.16951172 -3 11 C-3.66 10.67 -4.32 10.34 -5 10 C-4.690625 9.236875 -4.38125 8.47375 -4.0625 7.6875 C-3.32106407 5.81210323 -2.63771783 3.91315348 -2 2 C-1.34 2 -0.68 2 0 2 C0 1.34 0 0.68 0 0 Z " fill="#1292E8" transform="translate(278,381)"/>
<path d="M0 0 C0.33 0.99 0.66 1.98 1 3 C-0.40445835 5.2636564 -2.1967913 7.0208685 -4 9 C-4.99 8.34 -5.98 7.68 -7 7 C-6.34 6.67 -5.68 6.34 -5 6 C-4.67 5.01 -4.34 4.02 -4 3 C-3.01 2.67 -2.02 2.34 -1 2 C-0.67 1.34 -0.34 0.68 0 0 Z " fill="#0D96E9" transform="translate(407,334)"/>
<path d="M0 0 C3.96 0 7.92 0 12 0 C11.67 0.99 11.34 1.98 11 3 C7.37 2.34 3.74 1.68 0 1 C0 0.67 0 0.34 0 0 Z " fill="#0E6CCF" transform="translate(577,578)"/>
<path d="M0 0 C0.99 0.66 1.98 1.32 3 2 C1.68 2.33 0.36 2.66 -1 3 C-1 3.99 -1 4.98 -1 6 C-2.32 5.67 -3.64 5.34 -5 5 C-3.35 3.35 -1.7 1.7 0 0 Z " fill="#168AE1" transform="translate(303,467)"/>
<path d="M0 0 C0.99 0.66 1.98 1.32 3 2 C1.35 2.33 -0.3 2.66 -2 3 C-2 3.66 -2 4.32 -2 5 C-3.32 5 -4.64 5 -6 5 C-6 4.34 -6 3.68 -6 3 C-4.02 2.01 -2.04 1.02 0 0 Z " fill="#129DED" transform="translate(353,307)"/>
<path d="M0 0 C2.96865509 2.54456151 4.3619751 5.48994665 6 9 C2.56225537 7.85408512 1.82586841 7.04311402 0 4 C0 2.68 0 1.36 0 0 Z " fill="#199EEF" transform="translate(444,278)"/>
<path d="M0 0 C2.97 0.99 5.94 1.98 9 3 C8.34 3.66 7.68 4.32 7 5 C4.69 4.34 2.38 3.68 0 3 C0 2.01 0 1.02 0 0 Z " fill="#19A0EE" transform="translate(566,236)"/>
<path d="M0 0 C0.66 0.66 1.32 1.32 2 2 C-1.22791555 4.1519437 -2.28400809 4.20086443 -6 4 C-5.67 3.01 -5.34 2.02 -5 1 C-2.625 0.375 -2.625 0.375 0 0 Z " fill="#0F6CCF" transform="translate(544,601)"/>
<path d="M0 0 C0 3 0 3 -1.3125 4.38671875 C-2.875 5.59114583 -4.4375 6.79557292 -6 8 C-6 6.68 -6 5.36 -6 4 C-3 1.75 -3 1.75 0 0 Z " fill="#0259C7" transform="translate(662,577)"/>
<path d="M0 0 C0.33 0.66 0.66 1.32 1 2 C-0.65 3.65 -2.3 5.3 -4 7 C-3.6875 4.625 -3.6875 4.625 -3 2 C-2.01 1.34 -1.02 0.68 0 0 Z " fill="#0B6AD0" transform="translate(647,522)"/>
<path d="M0 0 C0 0.99 0 1.98 0 3 C-2.5 5.1875 -2.5 5.1875 -5 7 C-5 6.01 -5 5.02 -5 4 C-2.5 1.8125 -2.5 1.8125 0 0 Z " fill="#1895E7" transform="translate(381,365)"/>
<path d="M0 0 C0.91007812 0.00902344 1.82015625 0.01804688 2.7578125 0.02734375 C3.45648438 0.03894531 4.15515625 0.05054688 4.875 0.0625 C4.875 0.3925 4.875 0.7225 4.875 1.0625 C3.2971875 1.2790625 3.2971875 1.2790625 1.6875 1.5 C-1.27960549 1.93776966 -4.19294366 2.44054866 -7.125 3.0625 C-7.125 2.4025 -7.125 1.7425 -7.125 1.0625 C-4.60024538 -0.19987731 -2.81299534 -0.03606404 0 0 Z " fill="#2BAFF2" transform="translate(487.125,218.9375)"/>
</svg>
